<svg id="Calque_1" data-name="Calque 1" xmlns="http://www.w3.org/2000/svg" xmlns:xlink="http://www.w3.org/1999/xlink" viewBox="0 0 2479.48 1548.57"><defs><style>.cls-1,.cls-4{fill:#fff;}.cls-2{fill:#d66204;}.cls-3{fill:#0c8439;}.cls-4,.cls-6{isolation:isolate;}.cls-4{font-size:38.59px;font-family:MyriadPro-Bold, Myriad Pro;font-weight:700;}.cls-5{fill:#0f0e0e;}</style></defs><path class="cls-1" d="M1359.4-548c12.8-13.1,29.5-6.2,33.1,6,1.2,4.2.9,8.6.9,12.9.1,5.8-.1,11.7,0,17.5,0,2.6.2,4.6-3.7,4.5s-3.5-2.3-3.5-4.8c0-7.5.1-15.1,0-22.6-.1-8.9-5.2-14.2-13.3-14.1s-13.8,5.9-13.9,14.5c-.1,7.7-.2,15.4,0,23.1.1,3-1,3.8-3.9,3.8s-3.3-1.2-3.3-3.7c.1-13,0-26,.1-39,0-2.2-.9-4.8,3.3-4.9,4.4-.1,3.7,2.5,3.8,5.1A4.65,4.65,0,0,1,1359.4-548Z" transform="translate(815.8 770.6)"/><path class="cls-1" d="M1444.9-553.9h0c-5.8,14.4-11.7,28.8-17.2,43.3-1.1,2.9-2.5,3.6-5.3,3.5s-4.7-.3-5.9-3.6c-4.8-13-10.1-25.9-15-38.8-.5-1.4-3.5-3.8,0-4.8,2.3-.7,5.5-1.4,6.9,2.6,3.8,10.6,7.9,21.1,11.9,31.6.5,1.2,1,2.4,1.9,4.8,3.3-8.7,6.3-16.4,9.2-24.2,1.1-3,2.6-5.9,3.2-9C1435.9-554.8,1439.6-555.7,1444.9-553.9Z" transform="translate(815.8 770.6)"/><path class="cls-1" d="M1338.5-538.3c0,9-.1,18.1.1,27.1.1,3.2-.9,4.2-4.1,4.2s-3.6-1.4-3.6-4.1c.1-18.2.1-36.5,0-54.7,0-2.9.7-4,3.7-3.9,2.8.1,4,.7,3.9,3.8C1338.4-556.8,1338.5-547.6,1338.5-538.3Z" transform="translate(815.8 770.6)"/><path class="cls-2" d="M1444.9-553.9c1.9-22.4,13.8-38.9,35.3-44.6,22.6-6,43.2.4,56.8,21.7,2.3,3.6,1.6,5-2.9,5.7-6.2.9-10.9.5-15.7-4.9-9.4-10.6-26.2-12.9-38.5-7-13.6,6.5-22.1,20.9-19.9,35.4.8,5.6-3.2,6.6-6.1,8.9-6.3,5.1-7,4.9-8.2-3.3-.7-4.1-.6-8.1-.8-11.9Z" transform="translate(815.8 770.6)"/><path class="cls-2" d="M1543.3-556.5c1.4,14.1-1.9,26.5-10.8,36.6-9.4,10.5-19.8,20.1-29.8,30-.5.5-1.2.6-2.6,1.3a79.28,79.28,0,0,1,7.4-29.8c1-2.2,3.5-2.8,5.4-3.9a33.62,33.62,0,0,0,14-17.1C1530.5-549.4,1532-551.1,1543.3-556.5Z" transform="translate(815.8 770.6)"/><path class="cls-3" d="M1526.5-552.7c-16.1,14.3-27,31.7-30.7,53.2-.9,5.3-1.2,10.7-1.8,17.3-7.7-7.7-14.7-14.6-21.8-21.6-1.5-1.5-.6-2.8.2-4,1.9-3.3,3.8-6.5,5.6-9.8.8-1.4,3.4-3,.6-4.6-2.2-1.2-4.6-4.1-7.5-1.1a63.92,63.92,0,0,0-5.9,6.8c-1.7,2.2-3.3,2.9-5.3.4l-.4-.4c-10.7-10.2-10.8-11.8,1-20.2,18.1-12.9,37.4-22.9,59.7-26.1,1-.1,1.8-1.4,3-1,3.4.2,7.9-1.4,7.3,5.1C1530.2-555.8,1526.7-555.4,1526.5-552.7ZM1482-525.6c2.1.1,2.8-1,3.7-2,2.1-2.4,4.5-4.6,6.4-7.1.9-1.2,4.2-1.9,1.8-4.2a4.19,4.19,0,0,0-6.1-.1c-2.7,2.4-5.5,4.5-8.1,6.9-1,.9-3.2,2-2.4,3.4C1478.4-527.2,1480.7-526.4,1482-525.6Zm24.9-21.6a1.81,1.81,0,0,0-1.4-2.1c-1.7-.6-10.2,3.9-10.5,5.5-.2.9.4,1.3,1.1,1.7,1.4.8,2.8,1.2,4.2.1C1502.6-543.8,1504.9-545.6,1506.9-547.2Zm.4-4.6c5.3,3,6.9-1.1,9.5-2.7C1513.1-556.2,1510.8-553.6,1507.3-551.8Z" transform="translate(815.8 770.6)"/><path class="cls-3" d="M1519.6-548.3c.2-3.2,4.3-3.7,4.6-7.3.7-7.7-4.6-5.8-8.6-6,5.8-2.3,12-2.4,18.1-3.1,2.2-.3,2.9.7,3.8,2.6,1.1,2.4-.8,2.6-1.9,3.4C1530.3-555.2,1525-551.8,1519.6-548.3Zm10.3-8.9c-.1-.4-.2-.9-.4-1s-.7.1-1,.2c.2.4.3.9.5,1.3A2.62,2.62,0,0,1,1529.9-557.2Z" transform="translate(815.8 770.6)"/><path class="cls-1" d="M1588.3-548.7v-19.9c0-2.6-.3-4.7,3.6-4.7s3.7,1.9,3.7,4.6c-.1,18.5.1,36.9-.1,55.4,0,2,2.2,5.4-2.4,6.2-4.3.7-4.9-1.9-5.1-6-7,6.3-14.7,7.9-23,5.8a20.21,20.21,0,0,1-11.4-7.8c-7.2-9.7-6.4-24.7,1.8-33.4C1563.2-556.9,1574.7-557.1,1588.3-548.7Zm-32.4,18c0,10.3,6.6,17.6,16.2,17.8,9.8.2,16.7-7.3,16.6-18-.1-10.5-6.8-17.9-16.2-17.8C1562.7-548.7,1555.9-541.3,1555.9-530.7Z" transform="translate(815.8 770.6)"/><path class="cls-1" d="M1643.2-555c6.9,0,13.4,1.2,17.2,8.1.8,1.5,2.7,3.7.5,4.9-1.9,1-4.6,1.5-6.5-1.1-4.2-5.6-9.8-7.2-16.8-5.2-3,.9-5.1,2.5-5.2,5.8-.1,3.1,1.8,4.9,4.5,5.7,5.8,1.7,11.7,3,17.4,4.8,7.2,2.4,10.4,7.5,9.1,14.1-.7,3.6-2.5,6.7-6,8.4a27.76,27.76,0,0,1-24.5.6,14.23,14.23,0,0,1-8-8.3c-.5-1.5-2.6-3.9.2-4.6,2-.5,5-1.7,6.7,1.9,3.6,7.3,14.4,9.8,21.4,5.3,4.5-2.9,4.1-8.1-1-10.7-5.9-3-12.8-3.1-18.9-5.5-5.2-2-8.6-5.4-8.3-11.4s3.5-9.6,9.1-11.6C1637-554.9,1640-554.8,1643.2-555Z" transform="translate(815.8 770.6)"/><path class="cls-1" d="M1614.8-530.5c0,6.6-.2,13.2.1,19.7.1,3.2-1.3,3.5-3.9,3.6-3,.1-3.3-1.2-3.3-3.7.1-13.3.1-26.7,0-40,0-2.4.2-3.8,3.3-3.8s3.9.9,3.8,3.9C1614.6-544,1614.8-537.3,1614.8-530.5Z" transform="translate(815.8 770.6)"/><path class="cls-1" d="M1614.9-567.3c.1,2.8.8,5.4-3.6,5.3-3.7-.1-4.5-1.5-4.3-4.7.2-2.6-.4-5.1,3.9-5.1C1614.8-571.9,1615.4-570.2,1614.9-567.3Z" transform="translate(815.8 770.6)"/><path class="cls-1" d="M1349.5-459a3.21,3.21,0,0,1-.4,1.8,2.59,2.59,0,0,1-1.1,1,3.19,3.19,0,0,1-1.4.3,3.19,3.19,0,0,1-1.4-.3,2.66,2.66,0,0,1-1.1-1,3.21,3.21,0,0,1-.4-1.8v-5.5h-1.1v5.4a4.77,4.77,0,0,0,.5,2.2,5,5,0,0,0,1.4,1.5,3.64,3.64,0,0,0,2.1.5,4.65,4.65,0,0,0,2.1-.5,3.39,3.39,0,0,0,1.4-1.5,5.09,5.09,0,0,0,.5-2.2v-5.4h-1.1Z" transform="translate(815.8 770.6)"/><path class="cls-1" d="M1357.3-461.9a3.26,3.26,0,0,0-1.4-.4,2.41,2.41,0,0,0-1.5.4,2.84,2.84,0,0,0-1,.9v-1.1h-1.1v7.2h1.1v-4.2a2,2,0,0,1,.3-1.1,3,3,0,0,1,.8-.8,2,2,0,0,1,1.1-.3,2,2,0,0,1,1.5.6,2.11,2.11,0,0,1,.6,1.6v4.2h1.1v-4.2a2.86,2.86,0,0,0-.4-1.7A3.84,3.84,0,0,0,1357.3-461.9Z" transform="translate(815.8 770.6)"/><polygon class="cls-1" points="2178.8 314.6 2176.5 308.5 2175.3 308.5 2178.2 315.7 2179.4 315.7 2182.2 308.5 2181.1 308.5 2178.8 314.6"/><path class="cls-1" d="M1372.4-461.7a3.83,3.83,0,0,0-1.9-.5,3.83,3.83,0,0,0-1.9.5,2.76,2.76,0,0,0-1.2,1.4,4.06,4.06,0,0,0-.4,1.9,4.06,4.06,0,0,0,.4,1.9,4.07,4.07,0,0,0,1.2,1.4,3,3,0,0,0,1.9.5,3.83,3.83,0,0,0,1.9-.5,2.76,2.76,0,0,0,1.2-1.4,5.85,5.85,0,0,0,.4-1.9,4.06,4.06,0,0,0-.4-1.9A2.81,2.81,0,0,0,1372.4-461.7Zm.3,4.6a2.72,2.72,0,0,1-.8,1,2.89,2.89,0,0,1-1.4.4,2.3,2.3,0,0,1-1.4-.4,2.19,2.19,0,0,1-.9-1,3.19,3.19,0,0,1-.3-1.4,3.19,3.19,0,0,1,.3-1.4,2.19,2.19,0,0,1,.9-1,2.89,2.89,0,0,1,1.4-.4,2.3,2.3,0,0,1,1.4.4,2,2,0,0,1,.8,1,3.19,3.19,0,0,1,.3,1.4A3.53,3.53,0,0,1,1372.7-457.1Z" transform="translate(815.8 770.6)"/><rect class="cls-1" x="2191.3" y="305.6" width="1.1" height="10.1"/><path class="cls-1" d="M1383.5-461.7a3.83,3.83,0,0,0-1.9-.5,3.83,3.83,0,0,0-1.9.5,2.76,2.76,0,0,0-1.2,1.4,4.06,4.06,0,0,0-.4,1.9,4.06,4.06,0,0,0,.4,1.9,4.07,4.07,0,0,0,1.2,1.4,3,3,0,0,0,1.9.5,3.83,3.83,0,0,0,1.9-.5,3.33,3.33,0,0,0,1.2-1.4,4.06,4.06,0,0,0,.4-1.9,4.06,4.06,0,0,0-.4-1.9A2.81,2.81,0,0,0,1383.5-461.7Zm.3,4.6a2.19,2.19,0,0,1-.9,1,2.89,2.89,0,0,1-1.4.4,2.3,2.3,0,0,1-1.4-.4,1.59,1.59,0,0,1-.8-1,3.19,3.19,0,0,1-.3-1.4,3.19,3.19,0,0,1,.3-1.4,2.72,2.72,0,0,1,.8-1,2.89,2.89,0,0,1,1.4-.4,2.3,2.3,0,0,1,1.4.4,2.19,2.19,0,0,1,.9,1,3.19,3.19,0,0,1,.3,1.4A3.53,3.53,0,0,1,1383.8-457.1Z" transform="translate(815.8 770.6)"/><path class="cls-1" d="M1391.5-461.9a3.26,3.26,0,0,0-1.4-.4,2.41,2.41,0,0,0-1.5.4,4.3,4.3,0,0,0-1,.9v-1.1h-1.1v7.2h1.1v-4.2a2,2,0,0,1,.3-1.1,3,3,0,0,1,.8-.8,2,2,0,0,1,1.1-.3,2,2,0,0,1,1.5.6,2.11,2.11,0,0,1,.6,1.6v4.2h1.1v-4.2a2.86,2.86,0,0,0-.4-1.7A3.84,3.84,0,0,0,1391.5-461.9Z" transform="translate(815.8 770.6)"/><polygon class="cls-1" points="2212.3 305.9 2211.2 305.9 2211.2 308.5 2209.7 308.5 2209.7 309.4 2211.2 309.4 2211.2 315.7 2212.3 315.7 2212.3 309.4 2213.9 309.4 2213.9 308.5 2212.3 308.5 2212.3 305.9"/><path class="cls-1" d="M1404.8-460.9a2.44,2.44,0,0,0-1.1-.9,3.71,3.71,0,0,0-1.5-.4,3.45,3.45,0,0,0-1.8.5,3.33,3.33,0,0,0-1.2,1.4,4.06,4.06,0,0,0-.4,1.9,4.06,4.06,0,0,0,.4,1.9,4.07,4.07,0,0,0,1.2,1.4,3.45,3.45,0,0,0,1.8.5,2.41,2.41,0,0,0,1.5-.4,3.13,3.13,0,0,0,1.1-.9v1.2h1.1v-7.2h-1.1Zm-.2,3.8a2.72,2.72,0,0,1-.8,1,2.59,2.59,0,0,1-1.4.4,2.3,2.3,0,0,1-1.4-.4,2.19,2.19,0,0,1-.9-1,3.19,3.19,0,0,1-.3-1.4,3.19,3.19,0,0,1,.3-1.4,2.19,2.19,0,0,1,.9-1,2.89,2.89,0,0,1,1.4-.4,2.3,2.3,0,0,1,1.4.4,1.89,1.89,0,0,1,.8,1,3.19,3.19,0,0,1,.3,1.4A3.53,3.53,0,0,1,1404.6-457.1Z" transform="translate(815.8 770.6)"/><path class="cls-1" d="M1410.4-462a2.18,2.18,0,0,0-.8.5,2.65,2.65,0,0,0-.5.6,1.69,1.69,0,0,0-.2.5v-1.8h-1.1v7.2h1.1v-3.2a4,4,0,0,1,.3-1.5,2,2,0,0,1,.9-1.1,2.3,2.3,0,0,1,1.4-.4h.1v-1.1h-.1A3.54,3.54,0,0,0,1410.4-462Z" transform="translate(815.8 770.6)"/><polygon class="cls-1" points="2231.2 314.4 2228.9 308.5 2227.7 308.5 2230.6 315.6 2229.3 318.6 2230.5 318.6 2234.8 308.5 2233.6 308.5 2231.2 314.4"/><path class="cls-1" d="M1430.4-463.2a4.19,4.19,0,0,0-1.4-.9,4.53,4.53,0,0,0-1.6-.3h-4v9.6h4a4.15,4.15,0,0,0,1.6-.3,4.19,4.19,0,0,0,1.4-.9,5.6,5.6,0,0,0,1-1.5,6.47,6.47,0,0,0,.4-2,4.48,4.48,0,0,0-.4-2A4.49,4.49,0,0,0,1430.4-463.2Zm-.2,5.4a4.07,4.07,0,0,1-1.2,1.4,2.73,2.73,0,0,1-1.8.5h-2.9v-7.5h2.9a3.45,3.45,0,0,1,1.8.5,3.33,3.33,0,0,1,1.2,1.4,4.06,4.06,0,0,1,.4,1.9A3.92,3.92,0,0,1,1430.2-457.8Z" transform="translate(815.8 770.6)"/><rect class="cls-1" x="2249" y="305.8" width="1.2" height="1.4"/><rect class="cls-1" x="2249" y="308.5" width="1.1" height="7.2"/><path class="cls-1" d="M1440.5-458.6a5.27,5.27,0,0,0-1.2-.3l-1.2-.3a1.88,1.88,0,0,1-.9-.4.91.91,0,0,1-.3-.7c0-.7.6-1,1.7-1a2.27,2.27,0,0,1,1.3.3,1.37,1.37,0,0,1,.5.8h1.1a1.78,1.78,0,0,0-.4-1,2.36,2.36,0,0,0-.9-.8,3.51,3.51,0,0,0-1.6-.3,4.06,4.06,0,0,0-2.1.5,1.68,1.68,0,0,0-.7,1.5,2,2,0,0,0,.3,1.1,2,2,0,0,0,.9.6,5.27,5.27,0,0,0,1.2.3l1.2.3a1.88,1.88,0,0,1,.9.4.91.91,0,0,1,.3.7,1.42,1.42,0,0,1-.2.6,2.18,2.18,0,0,1-.5.4c-.2.1-.4.1-.6.2h-.5a3.09,3.09,0,0,1-1.1-.2.9.9,0,0,1-.6-.6,2.54,2.54,0,0,1-.2-.7h-1.1a2.84,2.84,0,0,0,.4,1.2c.2.4.6.6,1.1.9a4.31,4.31,0,0,0,1.7.3,3.8,3.8,0,0,0,2.2-.6,1.94,1.94,0,0,0,.8-1.6,2,2,0,0,0-.3-1.1A10.41,10.41,0,0,0,1440.5-458.6Z" transform="translate(815.8 770.6)"/><path class="cls-1" d="M1448.7-461.7a3.45,3.45,0,0,0-1.8-.5,3.34,3.34,0,0,0-1.5.3,3.13,3.13,0,0,0-1.1.9v-1.2h-1.1V-452h1.1v-4a2.44,2.44,0,0,0,1.1.9,3.31,3.31,0,0,0,1.5.4,3.45,3.45,0,0,0,1.8-.5,3.33,3.33,0,0,0,1.2-1.4,4.06,4.06,0,0,0,.4-1.9,4.06,4.06,0,0,0-.4-1.9A3,3,0,0,0,1448.7-461.7Zm.2,4.6a2.19,2.19,0,0,1-.9,1,2.89,2.89,0,0,1-1.4.4,2.3,2.3,0,0,1-1.4-.4,2.19,2.19,0,0,1-.9-1,3.19,3.19,0,0,1-.3-1.4,3.19,3.19,0,0,1,.3-1.4,2.19,2.19,0,0,1,.9-1,2.89,2.89,0,0,1,1.4-.4,2.3,2.3,0,0,1,1.4.4,2.19,2.19,0,0,1,.9,1,3.19,3.19,0,0,1,.3,1.4A2.38,2.38,0,0,1,1448.9-457.1Z" transform="translate(815.8 770.6)"/><rect class="cls-1" x="2267.6" y="305.6" width="1.1" height="10.1"/><path class="cls-1" d="M1460.4-460.9a2.84,2.84,0,0,0-1-.9,3.31,3.31,0,0,0-1.5-.4,3.45,3.45,0,0,0-1.8.5,3.33,3.33,0,0,0-1.2,1.4,4.06,4.06,0,0,0-.4,1.9,4.06,4.06,0,0,0,.4,1.9,4.07,4.07,0,0,0,1.2,1.4,3.45,3.45,0,0,0,1.8.5,2.41,2.41,0,0,0,1.5-.4,2.19,2.19,0,0,0,1-.9v1.2h1.1v-7.2h-1.1Zm-.3,3.8a2.72,2.72,0,0,1-.8,1,2.59,2.59,0,0,1-1.4.4,2.3,2.3,0,0,1-1.4-.4,2.19,2.19,0,0,1-.9-1,3.19,3.19,0,0,1-.3-1.4,3.19,3.19,0,0,1,.3-1.4,2.19,2.19,0,0,1,.9-1,2.89,2.89,0,0,1,1.4-.4,2.3,2.3,0,0,1,1.4.4,1.89,1.89,0,0,1,.8,1,3.19,3.19,0,0,1,.3,1.4A3.53,3.53,0,0,1,1460.1-457.1Z" transform="translate(815.8 770.6)"/><path class="cls-1" d="M1465.2-460.9a3.26,3.26,0,0,1,1.4-.4,2,2,0,0,1,1.3.4,2.54,2.54,0,0,1,.8,1h1.2a3,3,0,0,0-1.2-1.7,3.84,3.84,0,0,0-2.2-.7,4.14,4.14,0,0,0-1.9.5,2.76,2.76,0,0,0-1.2,1.4,4.06,4.06,0,0,0-.4,1.9,5.85,5.85,0,0,0,.4,1.9,4.07,4.07,0,0,0,1.2,1.4,3,3,0,0,0,1.9.5,3.23,3.23,0,0,0,2.2-.7,3,3,0,0,0,1.2-1.7h-1.2a2,2,0,0,1-.8,1,2.84,2.84,0,0,1-1.3.4,2.3,2.3,0,0,1-1.4-.4,2.19,2.19,0,0,1-.9-1,3.19,3.19,0,0,1-.3-1.4,3.19,3.19,0,0,1,.3-1.4A2.84,2.84,0,0,1,1465.2-460.9Z" transform="translate(815.8 770.6)"/><path class="cls-1" d="M1476.3-461.7a3.83,3.83,0,0,0-1.9-.5,3.83,3.83,0,0,0-1.9.5,2.76,2.76,0,0,0-1.2,1.4,4.06,4.06,0,0,0-.4,1.9,4.14,4.14,0,0,0,.5,1.9,3.48,3.48,0,0,0,1.3,1.4,3.83,3.83,0,0,0,1.9.5,3.28,3.28,0,0,0,2.1-.6,4,4,0,0,0,1.2-1.6h-1.2a3.45,3.45,0,0,1-.8.9,2.5,2.5,0,0,1-1.3.3,2.77,2.77,0,0,1-1.3-.3,2.36,2.36,0,0,1-.9-.8,4.23,4.23,0,0,1-.4-1.2h6.1v-.4a4.06,4.06,0,0,0-.4-1.9A4.11,4.11,0,0,0,1476.3-461.7Zm-4.4,2.6a3.46,3.46,0,0,1,.8-1.6,2.35,2.35,0,0,1,1.7-.6,2.52,2.52,0,0,1,1.7.6,2.72,2.72,0,0,1,.8,1.6Z" transform="translate(815.8 770.6)"/><path class="cls-1" d="M1488.6-461.9a2.84,2.84,0,0,0-1.3-.4,2.13,2.13,0,0,0-1.2.3,5.55,5.55,0,0,0-.8.6,2.65,2.65,0,0,0-.5.6,2.13,2.13,0,0,0-1-1.1,3.26,3.26,0,0,0-1.3-.4,2,2,0,0,0-1.4.4,3,3,0,0,0-.8.8v-1.1h-1.1v7.2h1.1v-4.3a2,2,0,0,1,.6-1.5,1.74,1.74,0,0,1,1.4-.5,1.76,1.76,0,0,1,1.3.6,2,2,0,0,1,.5,1.5v4.3h1.1v-4.3a2,2,0,0,1,.6-1.5,1.74,1.74,0,0,1,1.4-.5,1.76,1.76,0,0,1,1.3.6,2,2,0,0,1,.5,1.5v4.3h1.1v-4.4a2.93,2.93,0,0,0-.4-1.6A3.84,3.84,0,0,0,1488.6-461.9Z" transform="translate(815.8 770.6)"/><path class="cls-1" d="M1496.9-461.7a3.83,3.83,0,0,0-1.9-.5,3.83,3.83,0,0,0-1.9.5,2.76,2.76,0,0,0-1.2,1.4,4.06,4.06,0,0,0-.4,1.9,3.2,3.2,0,0,0,.5,1.9,3.48,3.48,0,0,0,1.3,1.4,3.2,3.2,0,0,0,1.9.5,3.28,3.28,0,0,0,2.1-.6,4,4,0,0,0,1.2-1.6h-1.2a3.45,3.45,0,0,1-.8.9,2.5,2.5,0,0,1-1.3.3,2.77,2.77,0,0,1-1.3-.3,2.36,2.36,0,0,1-.9-.8,2.45,2.45,0,0,1-.4-1.2h6.1v-.4a4.06,4.06,0,0,0-.4-1.9A4.11,4.11,0,0,0,1496.9-461.7Zm-4.4,2.6a3.46,3.46,0,0,1,.8-1.6,2.35,2.35,0,0,1,1.7-.6,2.52,2.52,0,0,1,1.7.6,2.72,2.72,0,0,1,.8,1.6Z" transform="translate(815.8 770.6)"/><path class="cls-1" d="M1504.8-461.9a3.26,3.26,0,0,0-1.4-.4,2.41,2.41,0,0,0-1.5.4,4.3,4.3,0,0,0-1,.9v-1.1h-1.1v7.2h1.1v-4.2a2,2,0,0,1,.3-1.1,3,3,0,0,1,.8-.8,2,2,0,0,1,1.1-.3,2,2,0,0,1,1.5.6,2.11,2.11,0,0,1,.6,1.6v4.2h1.1v-4.2a2.86,2.86,0,0,0-.4-1.7A3.84,3.84,0,0,0,1504.8-461.9Z" transform="translate(815.8 770.6)"/><polygon class="cls-1" points="2325.6 305.9 2324.5 305.9 2324.5 308.5 2323 308.5 2323 309.4 2324.5 309.4 2324.5 315.7 2325.6 315.7 2325.6 309.4 2327.2 309.4 2327.2 308.5 2325.6 308.5 2325.6 305.9"/><polygon class="cls-1" points="2336.4 310.7 2333 306.1 2331.7 306.1 2331.7 315.7 2332.8 315.7 2332.8 307.8 2336.4 312.3 2340 307.8 2340 315.7 2341 315.7 2341 306.1 2339.8 306.1 2336.4 310.7"/><path class="cls-1" d="M1533-460.9a2.44,2.44,0,0,0-1.1-.9,3.31,3.31,0,0,0-1.5-.4,3.45,3.45,0,0,0-1.8.5,3.33,3.33,0,0,0-1.2,1.4,4.06,4.06,0,0,0-.4,1.9,4.06,4.06,0,0,0,.4,1.9,4.07,4.07,0,0,0,1.2,1.4,3.45,3.45,0,0,0,1.8.5,2.41,2.41,0,0,0,1.5-.4,3.13,3.13,0,0,0,1.1-.9v1.2h1.1v-7.2H1533Zm-.2,3.8a2.72,2.72,0,0,1-.8,1,2.59,2.59,0,0,1-1.4.4,2.3,2.3,0,0,1-1.4-.4,2.19,2.19,0,0,1-.9-1,3.19,3.19,0,0,1-.3-1.4,3.19,3.19,0,0,1,.3-1.4,2.19,2.19,0,0,1,.9-1,2.89,2.89,0,0,1,1.4-.4,2.3,2.3,0,0,1,1.4.4,1.89,1.89,0,0,1,.8,1,3.19,3.19,0,0,1,.3,1.4A7,7,0,0,1,1532.8-457.1Z" transform="translate(815.8 770.6)"/><path class="cls-1" d="M1540.8-461.9a3.26,3.26,0,0,0-1.4-.4,2,2,0,0,0-1.4.4,8.12,8.12,0,0,0-1,.9v-1.1h-1.1v7.2h1.1v-4.2a2,2,0,0,1,.3-1.1,3,3,0,0,1,.8-.8,2,2,0,0,1,1.1-.3,2,2,0,0,1,1.5.6,2.11,2.11,0,0,1,.6,1.6v4.2h1.1v-4.2a2.86,2.86,0,0,0-.4-1.7A4.15,4.15,0,0,0,1540.8-461.9Z" transform="translate(815.8 770.6)"/><path class="cls-1" d="M1549.8-460.9a2.44,2.44,0,0,0-1.1-.9,3.31,3.31,0,0,0-1.5-.4,3.45,3.45,0,0,0-1.8.5,3.33,3.33,0,0,0-1.2,1.4,4.06,4.06,0,0,0-.4,1.9,4.06,4.06,0,0,0,.4,1.9,4.07,4.07,0,0,0,1.2,1.4,3.45,3.45,0,0,0,1.8.5,2.41,2.41,0,0,0,1.5-.4,3.13,3.13,0,0,0,1.1-.9v1.2h1.1v-7.2h-1.1Zm-.2,3.8a2.19,2.19,0,0,1-.9,1,2.89,2.89,0,0,1-1.4.4,2.3,2.3,0,0,1-1.4-.4,2.19,2.19,0,0,1-.9-1,3.19,3.19,0,0,1-.3-1.4,3.19,3.19,0,0,1,.3-1.4,2.19,2.19,0,0,1,.9-1,2.89,2.89,0,0,1,1.4-.4,2.3,2.3,0,0,1,1.4.4,2.19,2.19,0,0,1,.9,1,3.19,3.19,0,0,1,.3,1.4C1549.8-458,1549.7-457.6,1549.6-457.1Z" transform="translate(815.8 770.6)"/><path class="cls-1" d="M1558.4-461a2.84,2.84,0,0,0-1-.9,3.34,3.34,0,0,0-1.5-.3,3.45,3.45,0,0,0-1.8.5,3.74,3.74,0,0,0-1.2,1.3,4.06,4.06,0,0,0-.4,1.9,4.06,4.06,0,0,0,.4,1.9,3,3,0,0,0,1.2,1.3,3.45,3.45,0,0,0,1.8.5,2.41,2.41,0,0,0,1.5-.4,2.93,2.93,0,0,0,1-.9v1a2.35,2.35,0,0,1-.6,1.7,2.44,2.44,0,0,1-1.8.6,2.9,2.9,0,0,1-1.4-.3,2,2,0,0,1-.8-.8h-1.2a2.89,2.89,0,0,0,1.2,1.5,3.8,3.8,0,0,0,2.2.6,3.74,3.74,0,0,0,2.5-.8,3.09,3.09,0,0,0,.9-2.4v-7h-1.1v1Zm-.2,3.8a3.92,3.92,0,0,1-.8,1,2.84,2.84,0,0,1-1.3.4,2.3,2.3,0,0,1-1.4-.4,2.19,2.19,0,0,1-.9-1,3.19,3.19,0,0,1-.3-1.4,3.53,3.53,0,0,1,.3-1.4,2.84,2.84,0,0,1,.9-1,2.89,2.89,0,0,1,1.4-.4,1.84,1.84,0,0,1,1.3.4c.3.3.7.6.8,1a3.19,3.19,0,0,1,.3,1.4C1558.4-458.1,1558.3-457.6,1558.2-457.2Z" transform="translate(815.8 770.6)"/><path class="cls-1" d="M1566.4-461.7a3.83,3.83,0,0,0-1.9-.5,3.83,3.83,0,0,0-1.9.5,2.76,2.76,0,0,0-1.2,1.4,4.06,4.06,0,0,0-.4,1.9,4.14,4.14,0,0,0,.5,1.9,3.48,3.48,0,0,0,1.3,1.4,3.83,3.83,0,0,0,1.9.5,3.28,3.28,0,0,0,2.1-.6,4,4,0,0,0,1.2-1.6h-1.2a3.45,3.45,0,0,1-.8.9,2.77,2.77,0,0,1-1.3.3,2.77,2.77,0,0,1-1.3-.3,2.36,2.36,0,0,1-.9-.8,4.23,4.23,0,0,1-.4-1.2h6.1v-.4a4.06,4.06,0,0,0-.4-1.9A4.11,4.11,0,0,0,1566.4-461.7Zm-4.4,2.6a3.46,3.46,0,0,1,.8-1.6,2.35,2.35,0,0,1,1.7-.6,2.52,2.52,0,0,1,1.7.6,2.72,2.72,0,0,1,.8,1.6Z" transform="translate(815.8 770.6)"/><path class="cls-1" d="M1578.8-461.9a2.84,2.84,0,0,0-1.3-.4,2.13,2.13,0,0,0-1.2.3,5.55,5.55,0,0,0-.8.6,2.65,2.65,0,0,0-.5.6,2.66,2.66,0,0,0-1-1.1,3.26,3.26,0,0,0-1.3-.4,2,2,0,0,0-1.4.4,3,3,0,0,0-.8.8v-1.1h-1.1v7.2h1.1v-4.3a2,2,0,0,1,.6-1.5,1.74,1.74,0,0,1,1.4-.5,1.76,1.76,0,0,1,1.3.6,2,2,0,0,1,.5,1.5v4.3h1.1v-4.3a2,2,0,0,1,.6-1.5,1.74,1.74,0,0,1,1.4-.5,1.76,1.76,0,0,1,1.3.6,2,2,0,0,1,.5,1.5v4.3h1.1v-4.4a2.93,2.93,0,0,0-.4-1.6A5.7,5.7,0,0,0,1578.8-461.9Z" transform="translate(815.8 770.6)"/><path class="cls-1" d="M1587-461.7a3.83,3.83,0,0,0-1.9-.5,3.83,3.83,0,0,0-1.9.5,2.76,2.76,0,0,0-1.2,1.4,4.06,4.06,0,0,0-.4,1.9,4.14,4.14,0,0,0,.5,1.9,3.48,3.48,0,0,0,1.3,1.4,3.83,3.83,0,0,0,1.9.5,3.28,3.28,0,0,0,2.1-.6,4,4,0,0,0,1.2-1.6h-1.2a3.45,3.45,0,0,1-.8.9,2.5,2.5,0,0,1-1.3.3,2.77,2.77,0,0,1-1.3-.3,2.36,2.36,0,0,1-.9-.8,4.23,4.23,0,0,1-.4-1.2h6.1v-.4a4.06,4.06,0,0,0-.4-1.9A3,3,0,0,0,1587-461.7Zm-4.4,2.6a3.46,3.46,0,0,1,.8-1.6,2.35,2.35,0,0,1,1.7-.6,2.52,2.52,0,0,1,1.7.6,2.72,2.72,0,0,1,.8,1.6Z" transform="translate(815.8 770.6)"/><path class="cls-1" d="M1594.9-461.9a3.26,3.26,0,0,0-1.4-.4,2,2,0,0,0-1.4.4,2.84,2.84,0,0,0-1,.9v-1.1H1590v7.2h1.1v-4.2a2,2,0,0,1,.3-1.1,3,3,0,0,1,.8-.8,2,2,0,0,1,1.1-.3,2,2,0,0,1,1.5.6,2.11,2.11,0,0,1,.6,1.6v4.2h1.1v-4.2a2.86,2.86,0,0,0-.4-1.7A6,6,0,0,0,1594.9-461.9Z" transform="translate(815.8 770.6)"/><polygon class="cls-1" points="2415.7 305.9 2414.6 305.9 2414.6 308.5 2413.1 308.5 2413.1 309.4 2414.6 309.4 2414.6 315.7 2415.7 315.7 2415.7 309.4 2417.4 309.4 2417.4 308.5 2415.7 308.5 2415.7 305.9"/><path class="cls-1" d="M1612-459.5a5,5,0,0,0-1.3-.5,7.37,7.37,0,0,1-1.4-.4,5,5,0,0,1-1.3-.4,1.93,1.93,0,0,1-.9-.5,1.14,1.14,0,0,1-.3-.8.9.9,0,0,1,.1-.5,1,1,0,0,1,.4-.5,1.51,1.51,0,0,1,.8-.4,4.44,4.44,0,0,1,1.3-.2,3.68,3.68,0,0,1,2,.5,1.52,1.52,0,0,1,.7,1.2h1.1a2.65,2.65,0,0,0-.5-1.4,2.94,2.94,0,0,0-1.2-1,4.38,4.38,0,0,0-2.1-.4,4.15,4.15,0,0,0-2.7.7,2.32,2.32,0,0,0-.9,1.9,2.13,2.13,0,0,0,.3,1.2,2,2,0,0,0,.9.7,8.93,8.93,0,0,0,1.3.5,7.37,7.37,0,0,1,1.4.4,5,5,0,0,1,1.3.4,1.93,1.93,0,0,1,.9.5,1.14,1.14,0,0,1,.3.8,1.36,1.36,0,0,1-.7,1.3,3.58,3.58,0,0,1-1.9.4,6.05,6.05,0,0,1-1.5-.2,2,2,0,0,1-1.1-.6,2.22,2.22,0,0,1-.5-1.1h-1.1a2.46,2.46,0,0,0,.5,1.5,3.61,3.61,0,0,0,1.3,1.1,6.8,6.8,0,0,0,2.3.4,4.65,4.65,0,0,0,2.8-.7,2.39,2.39,0,0,0,1-2.1,2.13,2.13,0,0,0-.3-1.2C1612.7-459,1612.4-459.3,1612-459.5Z" transform="translate(815.8 770.6)"/><polygon class="cls-1" points="2433.2 314.4 2430.8 308.5 2429.6 308.5 2432.6 315.6 2431.3 318.6 2432.5 318.6 2436.7 308.5 2435.5 308.5 2433.2 314.4"/><path class="cls-1" d="M1626.2-458.6a5.27,5.27,0,0,0-1.2-.3l-1.2-.3a1.88,1.88,0,0,1-.9-.4.91.91,0,0,1-.3-.7c0-.7.6-1,1.7-1a2.27,2.27,0,0,1,1.3.3,1.37,1.37,0,0,1,.5.8h1.1a1.78,1.78,0,0,0-.4-1,2.36,2.36,0,0,0-.9-.8,3.51,3.51,0,0,0-1.6-.3,4.06,4.06,0,0,0-2.1.5,1.68,1.68,0,0,0-.7,1.5,2,2,0,0,0,.3,1.1,2,2,0,0,0,.9.6,5.27,5.27,0,0,0,1.2.3l1.2.3a1.88,1.88,0,0,1,.9.4.91.91,0,0,1,.3.7,1.42,1.42,0,0,1-.2.6,2.18,2.18,0,0,1-.5.4c-.2.1-.4.1-.6.2h-.5a3.09,3.09,0,0,1-1.1-.2.9.9,0,0,1-.6-.6,2.54,2.54,0,0,1-.2-.7h-1.1a2.84,2.84,0,0,0,.4,1.2c.2.4.6.6,1.1.9a4.31,4.31,0,0,0,1.7.3,3.8,3.8,0,0,0,2.2-.6,1.94,1.94,0,0,0,.8-1.6,2,2,0,0,0-.3-1.1A10.41,10.41,0,0,0,1626.2-458.6Z" transform="translate(815.8 770.6)"/><polygon class="cls-1" points="2446.6 305.9 2445.5 305.9 2445.5 308.5 2444 308.5 2444 309.4 2445.5 309.4 2445.5 315.7 2446.6 315.7 2446.6 309.4 2448.2 309.4 2448.2 308.5 2446.6 308.5 2446.6 305.9"/><path class="cls-1" d="M1638.5-461.7a3.83,3.83,0,0,0-1.9-.5,3.83,3.83,0,0,0-1.9.5,2.76,2.76,0,0,0-1.2,1.4,4.06,4.06,0,0,0-.4,1.9,4.14,4.14,0,0,0,.5,1.9,3.48,3.48,0,0,0,1.3,1.4,3.83,3.83,0,0,0,1.9.5,3.28,3.28,0,0,0,2.1-.6,4,4,0,0,0,1.2-1.6h-1.2a3.45,3.45,0,0,1-.8.9,2.5,2.5,0,0,1-1.3.3,2.77,2.77,0,0,1-1.3-.3,2.36,2.36,0,0,1-.9-.8,4.23,4.23,0,0,1-.4-1.2h6.1v-.4a4.06,4.06,0,0,0-.4-1.9A3,3,0,0,0,1638.5-461.7Zm-4.4,2.6a3.46,3.46,0,0,1,.8-1.6,2.35,2.35,0,0,1,1.7-.6,2.52,2.52,0,0,1,1.7.6,2.72,2.72,0,0,1,.8,1.6Z" transform="translate(815.8 770.6)"/><path class="cls-1" d="M1651.9-460.8a3.18,3.18,0,0,0-1-1,2.84,2.84,0,0,0-1.3-.4,2.13,2.13,0,0,0-1.2.3,5.55,5.55,0,0,0-.8.6,2.65,2.65,0,0,0-.5.6,2.13,2.13,0,0,0-1-1.1,3.26,3.26,0,0,0-1.3-.4,2,2,0,0,0-1.4.4,3,3,0,0,0-.8.8v-1.1h-1.1v7.2h1.1v-4.3a2,2,0,0,1,.6-1.5,1.74,1.74,0,0,1,1.4-.5,1.76,1.76,0,0,1,1.3.6,2,2,0,0,1,.5,1.5v4.3h1.1v-4.3a2,2,0,0,1,.6-1.5,1.74,1.74,0,0,1,1.4-.5,1.76,1.76,0,0,1,1.3.6,2,2,0,0,1,.5,1.5v4.3h1.1v-4.4A4.94,4.94,0,0,0,1651.9-460.8Z" transform="translate(815.8 770.6)"/><path class="cls-1" d="M188.76,480.52c39.26-40.19,90.49-19,101.53,18.4,3.68,12.89,2.76,26.38,2.76,39.57.31,17.8-.3,35.9,0,53.69,0,8,.62,14.11-11.35,13.8-12.27,0-10.73-7.05-10.73-14.72,0-23,.3-46.32,0-69.33-.31-27.3-16-43.56-40.8-43.25s-42.33,18.1-42.64,44.48c-.31,23.62-.61,47.24,0,70.86.31,9.2-3.07,11.65-12,11.65s-10.13-3.68-10.13-11.35c.31-39.87,0-79.75.31-119.63,0-6.75-2.76-14.73,10.12-15,13.5-.31,11.35,7.67,11.66,15.64A14.45,14.45,0,0,1,188.76,480.52Z" transform="translate(815.8 770.6)"/><path class="cls-1" d="M451,462.42h0c-17.79,44.17-35.89,88.34-52.76,132.82-3.37,8.9-7.67,11-16.26,10.74-8.89-.31-14.41-.92-18.1-11-14.72-39.88-31-79.45-46-119-1.53-4.3-10.74-11.66,0-14.73,7.06-2.15,16.87-4.29,21.17,8,11.65,32.51,24.23,64.72,36.5,96.93,1.54,3.68,3.07,7.36,5.83,14.73,10.12-26.69,19.33-50.31,28.22-74.24,3.38-9.2,8-18.1,9.82-27.61C423.43,459.66,434.78,456.9,451,462.42Z" transform="translate(815.8 770.6)"/><path class="cls-1" d="M124.64,510.27c0,27.61-.3,55.53.31,83.13.31,9.82-2.76,12.89-12.58,12.89s-11-4.3-11-12.58c.31-55.83.31-112,0-167.8,0-8.89,2.15-12.27,11.35-12,8.59.31,12.27,2.15,12,11.66C124.34,453.52,124.64,481.74,124.64,510.27Z" transform="translate(815.8 770.6)"/><path class="cls-2" d="M451,462.42c5.83-68.72,42.34-119.33,108.29-136.82,69.33-18.4,132.52,1.23,174.24,66.57,7.05,11,4.91,15.34-8.9,17.49-19,2.76-33.43,1.53-48.16-15-28.83-32.51-80.37-39.57-118.1-21.47-41.72,19.94-67.79,64.11-61,108.59,2.46,17.18-9.81,20.25-18.71,27.31-19.32,15.64-21.47,15-25.15-10.13-2.15-12.57-1.84-24.84-2.46-36.5Z" transform="translate(815.8 770.6)"/><path class="cls-2" d="M752.88,454.44c4.3,43.26-5.82,81.29-33.13,112.28-28.83,32.21-60.73,61.65-91.41,92-1.53,1.54-3.68,1.84-8,4,2.14-33.44,9.2-63.19,22.7-91.41,3.06-6.75,10.73-8.59,16.56-12,20.55-12.57,34.36-30.37,43-52.45C713.62,476.22,718.22,471,752.88,454.44Z" transform="translate(815.8 770.6)"/><path class="cls-3" d="M701.35,466.1C652,510,618.52,563.34,607.17,629.29c-2.76,16.26-3.68,32.83-5.52,53.07-23.62-23.62-45.09-44.78-66.87-66.26-4.6-4.6-1.84-8.58.61-12.27,5.83-10.12,11.66-19.94,17.18-30.06,2.46-4.29,10.43-9.2,1.84-14.11-6.75-3.68-14.11-12.58-23-3.37a194,194,0,0,0-18.1,20.86c-5.22,6.74-10.13,8.89-16.26,1.22l-1.23-1.22c-32.82-31.29-33.13-36.2,3.07-62,55.52-39.57,114.73-70.25,183.13-80.06,3.07-.31,5.53-4.3,9.21-3.07,10.43.61,24.23-4.3,22.39,15.64C712.7,456.59,702,457.82,701.35,466.1ZM564.84,549.23c6.44.31,8.59-3.07,11.35-6.13,6.44-7.37,13.81-14.12,19.63-21.78,2.77-3.69,12.89-5.83,5.53-12.89-5.22-5.21-12.27-5.83-18.72-.3-8.28,7.36-16.87,13.8-24.84,21.16-3.07,2.76-9.82,6.14-7.37,10.43C553.8,544.32,560.85,546.78,564.84,549.23ZM641.22,483c.31-4.6-2.14-5.52-4.29-6.44-5.21-1.84-31.29,12-32.21,16.87-.61,2.76,1.23,4,3.37,5.22,4.3,2.45,8.59,3.68,12.89.3C628,493.4,635.09,487.88,641.22,483Zm1.23-14.11c16.26,9.2,21.17-3.37,29.14-8.28C660.24,455.36,653.19,463.34,642.45,468.86Z" transform="translate(815.8 770.6)"/><path class="cls-3" d="M680.18,479.6c.62-9.82,13.19-11.35,14.11-22.4,2.15-23.62-14.11-17.79-26.38-18.4,17.79-7.06,36.81-7.36,55.53-9.51,6.74-.92,8.89,2.15,11.65,8,3.38,7.37-2.45,8-5.83,10.43C713,458.43,696.75,468.86,680.18,479.6Zm31.6-27.3c-.31-1.23-.61-2.77-1.23-3.07s-2.15.3-3.07.61c.62,1.23.92,2.76,1.54,4A8,8,0,0,1,711.78,452.3Z" transform="translate(815.8 770.6)"/><path class="cls-1" d="M890.93,478.37V417.32c0-8-.92-14.41,11-14.41,11.66,0,11.35,5.83,11.35,14.11-.31,56.75.31,113.19-.31,169.94,0,6.14,6.75,16.57-7.36,19-13.19,2.15-15-5.83-15.64-18.4-21.48,19.32-45.1,24.23-70.56,17.79-14.42-3.68-26.07-12-35-23.93C762.39,551.68,764.85,505.67,790,479,813.93,453.22,849.21,452.6,890.93,478.37Zm-99.39,55.22c0,31.59,20.24,54,49.69,54.6,30.06.61,51.23-22.39,50.92-55.22-.3-32.21-20.86-54.91-49.69-54.6C812.4,478.37,791.54,501.07,791.54,533.59Z" transform="translate(815.8 770.6)"/><path class="cls-1" d="M1059.34,459c21.16,0,41.1,3.69,52.76,24.85,2.45,4.6,8.28,11.35,1.53,15-5.83,3.07-14.11,4.6-19.94-3.37-12.88-17.18-30.06-22.09-51.53-15.95-9.2,2.76-15.65,7.67-16,17.79-.31,9.51,5.52,15,13.8,17.48,17.79,5.22,35.89,9.21,53.38,14.73,22.08,7.36,31.9,23,27.91,43.25-2.15,11-7.67,20.55-18.4,25.77-24.54,12.27-50,12.88-75.16,1.84-11.35-4.91-20.25-13.5-24.54-25.46-1.53-4.6-8-12,.61-14.11,6.14-1.54,15.34-5.22,20.56,5.83,11,22.39,44.17,30.06,65.64,16.25,13.81-8.89,12.58-24.84-3.07-32.82-18.09-9.2-39.26-9.51-58-16.87-16-6.14-26.38-16.57-25.46-35s10.73-29.45,27.91-35.59C1040.32,459.35,1049.52,459.66,1059.34,459Z" transform="translate(815.8 770.6)"/><path class="cls-1" d="M972.22,534.2c0,20.25-.62,40.49.3,60.43.31,9.82-4,10.74-12,11-9.2.31-10.12-3.68-10.12-11.35.3-40.79.3-81.9,0-122.7,0-7.36.61-11.66,10.12-11.66,9.2,0,12,2.77,11.66,12C971.6,492.79,972.22,513.34,972.22,534.2Z" transform="translate(815.8 770.6)"/><path class="cls-1" d="M972.52,421.31c.31,8.59,2.46,16.57-11,16.26-11.35-.31-13.8-4.6-13.19-14.42.61-8-1.23-15.64,12-15.64C972.22,407.2,974.06,412.42,972.52,421.31Z" transform="translate(815.8 770.6)"/><path class="cls-1" d="M152.59,745.1a10.33,10.33,0,0,0-4.5-1.29,7.69,7.69,0,0,0-4.82,1.29,9,9,0,0,0-3.22,2.89v-3.54h-3.54v23.16h3.54V754.1a6.54,6.54,0,0,1,1-3.54,9.85,9.85,0,0,1,2.58-2.57,7,7,0,0,1,8.36,1,6.76,6.76,0,0,1,1.93,5.14v13.51h3.54V754.1c0-2.25-.32-4.18-1.29-5.47A12.26,12.26,0,0,0,152.59,745.1Z" transform="translate(815.8 770.6)"/><polygon class="cls-1" points="986.73 1534.67 979.33 1515.05 975.47 1515.05 984.79 1538.21 988.65 1538.21 997.66 1515.05 994.12 1515.05 986.73 1534.67"/><path class="cls-1" d="M201.16,745.74a12.4,12.4,0,0,0-12.22,0,8.82,8.82,0,0,0-3.86,4.5A13.2,13.2,0,0,0,188.94,767c1.6,1.28,3.86,1.6,6.11,1.6a12.37,12.37,0,0,0,6.11-1.6,8.93,8.93,0,0,0,3.86-4.51,18.89,18.89,0,0,0,1.28-6.11,13.11,13.11,0,0,0-1.28-6.11A9,9,0,0,0,201.16,745.74Zm1,14.79a8.73,8.73,0,0,1-2.57,3.22,9.33,9.33,0,0,1-4.5,1.29,7.38,7.38,0,0,1-4.51-1.29,7,7,0,0,1-2.89-3.22,10.92,10.92,0,0,1,0-9,7.07,7.07,0,0,1,2.89-3.22,9.37,9.37,0,0,1,4.51-1.28,7.43,7.43,0,0,1,4.5,1.28,6.4,6.4,0,0,1,2.57,3.22,10.17,10.17,0,0,1,1,4.5A11.19,11.19,0,0,1,202.12,760.53Z" transform="translate(815.8 770.6)"/><rect class="cls-1" x="1026.93" y="1505.73" width="3.54" height="32.48"/><path class="cls-1" d="M236.86,745.74a12.4,12.4,0,0,0-12.22,0,8.82,8.82,0,0,0-3.86,4.5A13.2,13.2,0,0,0,224.64,767c1.6,1.28,3.85,1.6,6.11,1.6a12.37,12.37,0,0,0,6.11-1.6,10.84,10.84,0,0,0,3.86-4.51,15.22,15.22,0,0,0,0-12.22A9.09,9.09,0,0,0,236.86,745.74Zm1,14.79a7,7,0,0,1-2.89,3.22,9.37,9.37,0,0,1-4.51,1.29,7.37,7.37,0,0,1-4.5-1.29,5.11,5.11,0,0,1-2.57-3.22,10.92,10.92,0,0,1,0-9,8.81,8.81,0,0,1,2.57-3.22,9.33,9.33,0,0,1,4.5-1.28,7.44,7.44,0,0,1,4.51,1.28,7.07,7.07,0,0,1,2.89,3.22,10.31,10.31,0,0,1,1,4.5A11.37,11.37,0,0,1,237.82,760.53Z" transform="translate(815.8 770.6)"/><path class="cls-1" d="M262.59,745.1a10.42,10.42,0,0,0-4.51-1.29,7.71,7.71,0,0,0-4.82,1.29A13.67,13.67,0,0,0,250,748v-3.54h-3.53v23.16H250V754.1a6.46,6.46,0,0,1,1-3.54,9.81,9.81,0,0,1,2.57-2.57,7,7,0,0,1,8.36,1,6.76,6.76,0,0,1,1.93,5.14v13.51h3.54V754.1c0-2.25-.32-4.18-1.29-5.47A12.35,12.35,0,0,0,262.59,745.1Z" transform="translate(815.8 770.6)"/><polygon class="cls-1" points="1094.47 1506.69 1090.93 1506.69 1090.93 1515.05 1086.11 1515.05 1086.11 1517.95 1090.93 1517.95 1090.93 1538.21 1094.47 1538.21 1094.47 1517.95 1099.61 1517.95 1099.61 1515.05 1094.47 1515.05 1094.47 1506.69"/><path class="cls-1" d="M305.36,748.31a7.84,7.84,0,0,0-3.54-2.89,11.76,11.76,0,0,0-4.82-1.29,11.16,11.16,0,0,0-5.79,1.61,10.68,10.68,0,0,0-3.86,4.5A13.2,13.2,0,0,0,291.21,767a11.16,11.16,0,0,0,5.79,1.6,7.75,7.75,0,0,0,4.82-1.28,10,10,0,0,0,3.54-2.9v3.86h3.54V745.1h-3.54Zm-.64,12.22a8.75,8.75,0,0,1-2.58,3.22,8.33,8.33,0,0,1-4.5,1.29,7.35,7.35,0,0,1-4.5-1.29,7,7,0,0,1-2.89-3.22,10.92,10.92,0,0,1,0-9,7,7,0,0,1,2.89-3.22,9.33,9.33,0,0,1,4.5-1.28,7.39,7.39,0,0,1,4.5,1.28,6.09,6.09,0,0,1,2.58,3.22,10.31,10.31,0,0,1,1,4.5A11.35,11.35,0,0,1,304.72,760.53Z" transform="translate(815.8 770.6)"/><path class="cls-1" d="M323.37,744.78a7,7,0,0,0-2.57,1.6,8.81,8.81,0,0,0-1.61,1.93,5.54,5.54,0,0,0-.64,1.61v-5.79H315v23.16h3.54V757a13,13,0,0,1,1-4.83,6.51,6.51,0,0,1,2.9-3.54,7.39,7.39,0,0,1,4.5-1.28h.32v-3.54h-.32C325.62,744.13,324.34,744.13,323.37,744.78Z" transform="translate(815.8 770.6)"/><polygon class="cls-1" points="1155.25 1534.03 1147.86 1515.05 1144 1515.05 1153.32 1537.89 1149.14 1547.54 1153 1547.54 1166.83 1515.05 1162.97 1515.05 1155.25 1534.03"/><path class="cls-1" d="M387.69,740.92a13.31,13.31,0,0,0-4.5-2.9,14.64,14.64,0,0,0-5.14-1H365.18v30.87h12.87a13.73,13.73,0,0,0,9.64-3.86,17.71,17.71,0,0,0,3.22-4.82,20.88,20.88,0,0,0,1.29-6.43,19.35,19.35,0,0,0-4.51-11.9Zm-.64,17.36a13.08,13.08,0,0,1-3.86,4.51,8.82,8.82,0,0,1-5.79,1.6h-9.32V740.27h9.32a11.16,11.16,0,0,1,5.79,1.61,10.67,10.67,0,0,1,3.86,4.5,13,13,0,0,1,1.29,6.11A12.56,12.56,0,0,1,387.05,758.28Z" transform="translate(815.8 770.6)"/><rect class="cls-1" x="1212.5" y="1506.37" width="3.86" height="4.5"/><rect class="cls-1" x="1212.5" y="1515.05" width="3.54" height="23.16"/><path class="cls-1" d="M420.18,755.71a17,17,0,0,0-3.86-1l-3.86-1a6,6,0,0,1-2.9-1.29,2.91,2.91,0,0,1-1-2.25c0-2.25,1.93-3.21,5.47-3.21a7.33,7.33,0,0,1,4.18,1,4.44,4.44,0,0,1,1.61,2.57h3.53a5.72,5.72,0,0,0-1.28-3.21,7.56,7.56,0,0,0-2.9-2.57,11.14,11.14,0,0,0-5.14-1,13,13,0,0,0-6.76,1.61,5.42,5.42,0,0,0-2.25,4.82,6.42,6.42,0,0,0,1,3.54c.64,1,1.61,1.29,2.89,1.93a17,17,0,0,0,3.86,1l3.86,1a6,6,0,0,1,2.9,1.29,2.91,2.91,0,0,1,1,2.25,4.63,4.63,0,0,1-.64,1.93,7.29,7.29,0,0,1-1.61,1.28c-.64.33-1.29.33-1.93.65h-1.61a9.76,9.76,0,0,1-3.54-.65,2.89,2.89,0,0,1-1.93-1.93,8.1,8.1,0,0,1-.64-2.25h-3.54a9.15,9.15,0,0,0,1.29,3.86c.64,1.29,1.93,1.93,3.54,2.9a13.86,13.86,0,0,0,5.46,1,12.21,12.21,0,0,0,7.08-1.93,6.22,6.22,0,0,0,2.57-5.14,6.5,6.5,0,0,0-1-3.54A32.68,32.68,0,0,0,420.18,755.71Z" transform="translate(815.8 770.6)"/><path class="cls-1" d="M446.55,745.74a11.16,11.16,0,0,0-5.79-1.61,10.61,10.61,0,0,0-4.82,1A9.9,9.9,0,0,0,432.4,748v-3.86h-3.54v32.81h3.54V764.07a7.86,7.86,0,0,0,3.54,2.9,10.65,10.65,0,0,0,4.82,1.28,11.07,11.07,0,0,0,5.79-1.61,10.61,10.61,0,0,0,3.86-4.5,15.11,15.11,0,0,0,0-12.22A9.7,9.7,0,0,0,446.55,745.74Zm.64,14.79a7,7,0,0,1-2.89,3.22,9.33,9.33,0,0,1-4.5,1.29,7.38,7.38,0,0,1-4.51-1.29,7,7,0,0,1-2.89-3.22,11,11,0,0,1,0-9,7.07,7.07,0,0,1,2.89-3.22A9.37,9.37,0,0,1,439.8,747a7.41,7.41,0,0,1,4.5,1.28,7,7,0,0,1,2.89,3.22,10.17,10.17,0,0,1,1,4.5A7.6,7.6,0,0,1,447.19,760.53Z" transform="translate(815.8 770.6)"/><rect class="cls-1" x="1272.32" y="1505.73" width="3.54" height="32.48"/><path class="cls-1" d="M484.18,748.31a9.08,9.08,0,0,0-3.22-2.89,10.53,10.53,0,0,0-4.82-1.29,11.16,11.16,0,0,0-5.79,1.61,10.68,10.68,0,0,0-3.86,4.5A13.2,13.2,0,0,0,470.35,767a11.16,11.16,0,0,0,5.79,1.6,7.75,7.75,0,0,0,4.82-1.28,7,7,0,0,0,3.22-2.9v3.86h3.54V745.1h-3.54Zm-1,12.22a8.75,8.75,0,0,1-2.58,3.22,8.33,8.33,0,0,1-4.5,1.29,7.33,7.33,0,0,1-4.5-1.29,7,7,0,0,1-2.9-3.22,11,11,0,0,1,0-9,7.09,7.09,0,0,1,2.9-3.22,9.3,9.3,0,0,1,4.5-1.28,7.39,7.39,0,0,1,4.5,1.28,6.13,6.13,0,0,1,2.58,3.22,10.31,10.31,0,0,1,1,4.5A11.35,11.35,0,0,1,483.22,760.53Z" transform="translate(815.8 770.6)"/><path class="cls-1" d="M499.62,748.31a10.46,10.46,0,0,1,4.5-1.28,6.49,6.49,0,0,1,4.18,1.28,8.12,8.12,0,0,1,2.57,3.22h3.86a9.6,9.6,0,0,0-3.86-5.47,12.32,12.32,0,0,0-7.07-2.25,13.24,13.24,0,0,0-6.11,1.61c-1.93,1-2.9,2.57-3.86,4.5a13,13,0,0,0-1.29,6.11,18.9,18.9,0,0,0,1.29,6.11,13,13,0,0,0,3.86,4.5c1.61,1.29,3.86,1.61,6.11,1.61a10.38,10.38,0,0,0,7.07-2.25,9.53,9.53,0,0,0,3.86-5.47h-3.86a6.36,6.36,0,0,1-2.57,3.22,9.17,9.17,0,0,1-4.18,1.29,7.4,7.4,0,0,1-4.5-1.29,7,7,0,0,1-2.9-3.22,11,11,0,0,1,0-9A9.2,9.2,0,0,1,499.62,748.31Z" transform="translate(815.8 770.6)"/><path class="cls-1" d="M535.32,745.74a12.4,12.4,0,0,0-12.22,0,8.82,8.82,0,0,0-3.86,4.5,13,13,0,0,0-1.29,6.11,13.24,13.24,0,0,0,1.61,6.11,11.2,11.2,0,0,0,4.18,4.51,12.37,12.37,0,0,0,6.11,1.6,10.51,10.51,0,0,0,6.75-1.93,12.68,12.68,0,0,0,3.86-5.14H536.6a10.79,10.79,0,0,1-2.57,2.89,8,8,0,0,1-4.18,1,8.83,8.83,0,0,1-4.18-1,7.56,7.56,0,0,1-2.9-2.57,13.69,13.69,0,0,1-1.28-3.86h19.62v-1.29a12,12,0,0,0-5.79-10.93Zm-14.15,8.36a11,11,0,0,1,2.57-5.14,7.56,7.56,0,0,1,5.47-1.93,8.07,8.07,0,0,1,5.46,1.93,8.69,8.69,0,0,1,2.58,5.14Z" transform="translate(815.8 770.6)"/><path class="cls-1" d="M574.88,745.1a9.08,9.08,0,0,0-4.18-1.29,6.87,6.87,0,0,0-3.86,1,18.8,18.8,0,0,0-2.58,1.93,9.1,9.1,0,0,0-1.61,1.93,6.82,6.82,0,0,0-3.21-3.53,10.42,10.42,0,0,0-4.18-1.29c-1.93,0-3.54.32-4.51,1.29a9.74,9.74,0,0,0-2.57,2.57v-3.54h-3.54v23.16h3.54V753.46a6.59,6.59,0,0,1,1.93-4.83,6.23,6.23,0,0,1,8.69.33,6.32,6.32,0,0,1,1.6,4.82v13.83h3.54V753.78a6.51,6.51,0,0,1,1.93-4.82,6.2,6.2,0,0,1,8.68.32,6.28,6.28,0,0,1,1.61,4.82v13.83h3.54V753.78a9.41,9.41,0,0,0-1.29-5.15A12.35,12.35,0,0,0,574.88,745.1Z" transform="translate(815.8 770.6)"/><path class="cls-1" d="M601.57,745.74a12.4,12.4,0,0,0-12.22,0,8.82,8.82,0,0,0-3.86,4.5,13,13,0,0,0-1.29,6.11,10.26,10.26,0,0,0,1.61,6.11A11.27,11.27,0,0,0,590,767a10.33,10.33,0,0,0,6.11,1.6,10.54,10.54,0,0,0,6.76-1.93,12.86,12.86,0,0,0,3.86-5.14h-3.86a11,11,0,0,1-2.58,2.89,8,8,0,0,1-4.18,1,8.83,8.83,0,0,1-4.18-1,7.53,7.53,0,0,1-2.89-2.57,7.82,7.82,0,0,1-1.29-3.86h19.62v-1.29a13,13,0,0,0-1.29-6.11A13.17,13.17,0,0,0,601.57,745.74Zm-14.15,8.36A11.13,11.13,0,0,1,590,749a7.56,7.56,0,0,1,5.47-1.93,8.11,8.11,0,0,1,5.47,1.93,8.73,8.73,0,0,1,2.57,5.14Z" transform="translate(815.8 770.6)"/><path class="cls-1" d="M627,745.1a10.41,10.41,0,0,0-4.5-1.29,7.74,7.74,0,0,0-4.83,1.29,13.43,13.43,0,0,0-3.21,2.89v-3.54H610.9v23.16h3.54V754.1a6.54,6.54,0,0,1,1-3.54A9.81,9.81,0,0,1,618,748a7,7,0,0,1,8.36,1,6.76,6.76,0,0,1,1.93,5.14v13.51h3.54V754.1c0-2.25-.32-4.18-1.28-5.47A12.51,12.51,0,0,0,627,745.1Z" transform="translate(815.8 770.6)"/><polygon class="cls-1" points="1458.86 1506.69 1455.32 1506.69 1455.32 1515.05 1450.5 1515.05 1450.5 1517.95 1455.32 1517.95 1455.32 1538.21 1458.86 1538.21 1458.86 1517.95 1464.01 1517.95 1464.01 1515.05 1458.86 1515.05 1458.86 1506.69"/><polygon class="cls-1" points="1493.59 1522.13 1482.66 1507.34 1478.48 1507.34 1478.48 1538.21 1482.02 1538.21 1482.02 1512.8 1493.59 1527.28 1505.17 1512.8 1505.17 1538.21 1508.39 1538.21 1508.39 1507.34 1504.53 1507.34 1493.59 1522.13"/><path class="cls-1" d="M717.67,748.31a7.87,7.87,0,0,0-3.53-2.89,10.61,10.61,0,0,0-4.83-1.29,11.16,11.16,0,0,0-5.79,1.61,10.75,10.75,0,0,0-3.86,4.5,15.22,15.22,0,0,0,0,12.22,13.29,13.29,0,0,0,3.86,4.51,11.16,11.16,0,0,0,5.79,1.6,7.8,7.8,0,0,0,4.83-1.28,10.1,10.1,0,0,0,3.53-2.9v3.86h3.54V745.1h-3.54ZM717,760.53a8.73,8.73,0,0,1-2.57,3.22A8.35,8.35,0,0,1,710,765a7.38,7.38,0,0,1-4.51-1.29,7,7,0,0,1-2.89-3.22,10.92,10.92,0,0,1,0-9,7.07,7.07,0,0,1,2.89-3.22A9.37,9.37,0,0,1,710,747a7.43,7.43,0,0,1,4.5,1.28,6.11,6.11,0,0,1,2.57,3.22,10.31,10.31,0,0,1,1,4.5C718,757.64,717.35,758.93,717,760.53Z" transform="translate(815.8 770.6)"/><path class="cls-1" d="M742.76,745.1a10.37,10.37,0,0,0-4.5-1.29c-1.93,0-3.54.32-4.51,1.29s-2.25,1.6-3.21,2.89v-3.54H727v23.16h3.54V754.1a6.54,6.54,0,0,1,1-3.54,9.85,9.85,0,0,1,2.58-2.57,7,7,0,0,1,8.36,1,6.79,6.79,0,0,1,1.93,5.14v13.51h3.54V754.1a9.26,9.26,0,0,0-1.29-5.47A13.37,13.37,0,0,0,742.76,745.1Z" transform="translate(815.8 770.6)"/><path class="cls-1" d="M771.71,748.31a7.9,7.9,0,0,0-3.54-2.89,10.61,10.61,0,0,0-4.83-1.29,11.16,11.16,0,0,0-5.79,1.61,10.66,10.66,0,0,0-3.85,4.5,15.11,15.11,0,0,0,0,12.22,13.16,13.16,0,0,0,3.85,4.51,11.16,11.16,0,0,0,5.79,1.6,7.8,7.8,0,0,0,4.83-1.28,10.22,10.22,0,0,0,3.54-2.9v3.86h3.53V745.1h-3.53Zm-.65,12.22a7,7,0,0,1-2.89,3.22,9.33,9.33,0,0,1-4.5,1.29,7.38,7.38,0,0,1-4.51-1.29,7,7,0,0,1-2.89-3.22,10.92,10.92,0,0,1,0-9,7.07,7.07,0,0,1,2.89-3.22,9.37,9.37,0,0,1,4.51-1.28,7.43,7.43,0,0,1,4.5,1.28,7.07,7.07,0,0,1,2.89,3.22,10.17,10.17,0,0,1,1,4.5C771.71,757.64,771.38,758.93,771.06,760.53Z" transform="translate(815.8 770.6)"/><path class="cls-1" d="M799.36,748a9,9,0,0,0-3.21-2.89,10.68,10.68,0,0,0-4.83-1,11.1,11.1,0,0,0-5.78,1.61,11.92,11.92,0,0,0-3.86,4.18,15.11,15.11,0,0,0,0,12.22,9.7,9.7,0,0,0,3.86,4.18,11,11,0,0,0,5.78,1.61,7.74,7.74,0,0,0,4.83-1.29,9.25,9.25,0,0,0,3.21-2.89V767a7.56,7.56,0,0,1-1.92,5.46q-1.94,1.94-5.79,1.93a9.42,9.42,0,0,1-4.51-1,6.6,6.6,0,0,1-2.57-2.57h-3.86a9.29,9.29,0,0,0,3.86,4.82,12.21,12.21,0,0,0,7.08,1.93,12,12,0,0,0,8-2.57c1.93-1.93,2.89-4.18,2.89-7.72V744.78H799l.32,3.21Zm-.64,12.22a12.66,12.66,0,0,1-2.57,3.22,9.17,9.17,0,0,1-4.18,1.29,7.44,7.44,0,0,1-4.51-1.29,7,7,0,0,1-2.89-3.22,10.28,10.28,0,0,1-1-4.5,11.39,11.39,0,0,1,1-4.5,9.16,9.16,0,0,1,2.89-3.22A9.37,9.37,0,0,1,792,746.7a6,6,0,0,1,4.18,1.29c1,1,2.25,1.93,2.57,3.22a10.28,10.28,0,0,1,1,4.5C799.36,757.32,799,758.93,798.72,760.21Z" transform="translate(815.8 770.6)"/><path class="cls-1" d="M825.09,745.74a12.4,12.4,0,0,0-12.22,0,8.87,8.87,0,0,0-3.86,4.5,13.11,13.11,0,0,0-1.28,6.11,13.36,13.36,0,0,0,1.6,6.11,11.3,11.3,0,0,0,4.19,4.51,12.34,12.34,0,0,0,6.11,1.6,10.53,10.53,0,0,0,6.75-1.93,12.77,12.77,0,0,0,3.86-5.14h-3.86a11,11,0,0,1-2.57,2.89,9.49,9.49,0,0,1-8.36,0,7.49,7.49,0,0,1-2.9-2.57,14,14,0,0,1-1.29-3.86h19.62v-1.29a11.92,11.92,0,0,0-5.79-10.93Zm-14.15,8.36a11,11,0,0,1,2.58-5.14A7.52,7.52,0,0,1,819,747a8.11,8.11,0,0,1,5.47,1.93A8.68,8.68,0,0,1,827,754.1Z" transform="translate(815.8 770.6)"/><path class="cls-1" d="M865,745.1a9,9,0,0,0-4.18-1.29,6.92,6.92,0,0,0-3.86,1,18.66,18.66,0,0,0-2.57,1.93,8.81,8.81,0,0,0-1.61,1.93,8.56,8.56,0,0,0-3.21-3.53,10.42,10.42,0,0,0-4.18-1.29c-1.93,0-3.54.32-4.51,1.29a9.59,9.59,0,0,0-2.57,2.57v-3.54h-3.54v23.16h3.54V753.46a6.55,6.55,0,0,1,1.93-4.83,6.21,6.21,0,0,1,8.68.33,6.28,6.28,0,0,1,1.61,4.82v13.83H854V753.78A6.51,6.51,0,0,1,856,749a6.2,6.2,0,0,1,8.68.32,6.28,6.28,0,0,1,1.61,4.82v13.83h3.54V753.78a9.41,9.41,0,0,0-1.29-5.15A18.11,18.11,0,0,0,865,745.1Z" transform="translate(815.8 770.6)"/><path class="cls-1" d="M891.35,745.74a12.4,12.4,0,0,0-12.22,0,8.82,8.82,0,0,0-3.86,4.5,13,13,0,0,0-1.29,6.11,13.24,13.24,0,0,0,1.61,6.11,11.2,11.2,0,0,0,4.18,4.51,12.37,12.37,0,0,0,6.11,1.6,10.51,10.51,0,0,0,6.75-1.93,12.68,12.68,0,0,0,3.86-5.14h-3.86a10.79,10.79,0,0,1-2.57,2.89,8,8,0,0,1-4.18,1,8.83,8.83,0,0,1-4.18-1,7.56,7.56,0,0,1-2.9-2.57,13.69,13.69,0,0,1-1.28-3.86h19.62v-1.29a13.12,13.12,0,0,0-1.29-6.11A9.48,9.48,0,0,0,891.35,745.74ZM877.2,754.1a11,11,0,0,1,2.57-5.14,7.56,7.56,0,0,1,5.47-1.93A8.07,8.07,0,0,1,890.7,749a8.69,8.69,0,0,1,2.58,5.14Z" transform="translate(815.8 770.6)"/><path class="cls-1" d="M916.76,745.1a10.42,10.42,0,0,0-4.51-1.29c-1.93,0-3.54.32-4.5,1.29a9.07,9.07,0,0,0-3.22,2.89v-3.54H901v23.16h3.53V754.1a6.46,6.46,0,0,1,1-3.54,9.81,9.81,0,0,1,2.57-2.57,7,7,0,0,1,8.36,1,6.76,6.76,0,0,1,1.93,5.14v13.51h3.54V754.1c0-2.25-.32-4.18-1.29-5.47A19.29,19.29,0,0,0,916.76,745.1Z" transform="translate(815.8 770.6)"/><polygon class="cls-1" points="1748.64 1506.69 1745.1 1506.69 1745.1 1515.05 1740.27 1515.05 1740.27 1517.95 1745.1 1517.95 1745.1 1538.21 1748.64 1538.21 1748.64 1517.95 1754.1 1517.95 1754.1 1515.05 1748.64 1515.05 1748.64 1506.69"/><path class="cls-1" d="M971.75,752.82a15.74,15.74,0,0,0-4.18-1.61,23.8,23.8,0,0,1-4.5-1.29,15.51,15.51,0,0,1-4.18-1.29A6.26,6.26,0,0,1,956,747a3.68,3.68,0,0,1-1-2.58,2.88,2.88,0,0,1,.32-1.6,3.14,3.14,0,0,1,1.29-1.61,4.75,4.75,0,0,1,2.57-1.29,14.29,14.29,0,0,1,4.18-.64,11.79,11.79,0,0,1,6.43,1.61,4.88,4.88,0,0,1,2.25,3.86h3.54a8.52,8.52,0,0,0-1.61-4.51,9.42,9.42,0,0,0-3.86-3.21,14,14,0,0,0-6.75-1.29c-3.86,0-6.75.64-8.68,2.25a7.48,7.48,0,0,0-2.9,6.11,6.79,6.79,0,0,0,1,3.86,6.43,6.43,0,0,0,2.89,2.25,28.83,28.83,0,0,0,4.18,1.61,22.88,22.88,0,0,1,4.5,1.29,16.07,16.07,0,0,1,4.19,1.28,6.32,6.32,0,0,1,2.89,1.61,3.68,3.68,0,0,1,1,2.57,4.38,4.38,0,0,1-2.25,4.19,11.51,11.51,0,0,1-6.11,1.28,19.47,19.47,0,0,1-4.82-.64,6.39,6.39,0,0,1-3.54-1.93,7.18,7.18,0,0,1-1.61-3.54h-3.54a8,8,0,0,0,1.61,4.83,11.65,11.65,0,0,0,4.18,3.53,21.7,21.7,0,0,0,7.4,1.29c3.86,0,6.75-.64,9-2.25a7.7,7.7,0,0,0,3.21-6.76,6.86,6.86,0,0,0-1-3.85C974,754.42,973,753.46,971.75,752.82Z" transform="translate(815.8 770.6)"/><polygon class="cls-1" points="1804.92 1534.03 1797.2 1515.05 1793.34 1515.05 1802.99 1537.89 1798.81 1547.54 1802.67 1547.54 1816.17 1515.05 1812.32 1515.05 1804.92 1534.03"/><path class="cls-1" d="M1017.42,755.71a17,17,0,0,0-3.86-1l-3.86-1a6,6,0,0,1-2.89-1.29,2.89,2.89,0,0,1-1-2.25c0-2.25,1.93-3.21,5.47-3.21a7.31,7.31,0,0,1,4.18,1,4.39,4.39,0,0,1,1.61,2.57h3.54a5.73,5.73,0,0,0-1.29-3.21,7.53,7.53,0,0,0-2.89-2.57,11.21,11.21,0,0,0-5.15-1,13,13,0,0,0-6.75,1.61,5.4,5.4,0,0,0-2.26,4.82,6.5,6.5,0,0,0,1,3.54c.64,1,1.61,1.29,2.89,1.93a17.17,17.17,0,0,0,3.86,1l3.86,1a6,6,0,0,1,2.9,1.29,2.91,2.91,0,0,1,1,2.25,4.63,4.63,0,0,1-.64,1.93,7.06,7.06,0,0,1-1.61,1.28c-.64.33-1.29.33-1.93.65H1012a9.7,9.7,0,0,1-3.53-.65,2.87,2.87,0,0,1-1.93-1.93,7.84,7.84,0,0,1-.65-2.25h-3.53a9.13,9.13,0,0,0,1.28,3.86c.65,1.29,1.93,1.93,3.54,2.9a14,14,0,0,0,5.47,1,12.2,12.2,0,0,0,7.07-1.93,6.23,6.23,0,0,0,2.58-5.14,6.5,6.5,0,0,0-1-3.54A32,32,0,0,0,1017.42,755.71Z" transform="translate(815.8 770.6)"/><polygon class="cls-1" points="1848.02 1506.69 1844.48 1506.69 1844.48 1515.05 1839.65 1515.05 1839.65 1517.95 1844.48 1517.95 1844.48 1538.21 1848.02 1538.21 1848.02 1517.95 1853.16 1517.95 1853.16 1515.05 1848.02 1515.05 1848.02 1506.69"/><path class="cls-1" d="M1057,745.74a12.4,12.4,0,0,0-12.22,0,8.82,8.82,0,0,0-3.86,4.5,13,13,0,0,0-1.29,6.11,13.37,13.37,0,0,0,1.61,6.11,11.27,11.27,0,0,0,4.18,4.51,12.37,12.37,0,0,0,6.11,1.6,10.54,10.54,0,0,0,6.76-1.93,12.86,12.86,0,0,0,3.86-5.14h-3.86a11,11,0,0,1-2.58,2.89,8,8,0,0,1-4.18,1,8.83,8.83,0,0,1-4.18-1,7.46,7.46,0,0,1-2.89-2.57,13.38,13.38,0,0,1-1.29-3.86h19.62v-1.29a13,13,0,0,0-1.29-6.11A9.44,9.44,0,0,0,1057,745.74Zm-14.15,8.36a11.13,11.13,0,0,1,2.57-5.14,7.56,7.56,0,0,1,5.47-1.93,8.11,8.11,0,0,1,5.47,1.93,8.73,8.73,0,0,1,2.57,5.14Z" transform="translate(815.8 770.6)"/><path class="cls-1" d="M1100.08,748.63a10.26,10.26,0,0,0-3.22-3.21,9,9,0,0,0-4.18-1.29,6.79,6.79,0,0,0-3.86,1,17.18,17.18,0,0,0-2.57,1.93,8.12,8.12,0,0,0-1.61,1.93,6.82,6.82,0,0,0-3.22-3.54,10.33,10.33,0,0,0-4.18-1.29c-1.93,0-3.54.32-4.5,1.29a9.58,9.58,0,0,0-2.57,2.57v-3.54h-3.54v23.16h3.54V753.78a6.51,6.51,0,0,1,1.93-4.82,5.58,5.58,0,0,1,4.5-1.61,5.65,5.65,0,0,1,4.18,1.93,6.28,6.28,0,0,1,1.61,4.82v13.83h3.54V754.1a6.51,6.51,0,0,1,1.93-4.82,5.58,5.58,0,0,1,4.5-1.61,5.65,5.65,0,0,1,4.18,1.93,6.3,6.3,0,0,1,1.61,4.82v13.83h3.53V754.1A16,16,0,0,0,1100.08,748.63Z" transform="translate(815.8 770.6)"/><text class="cls-4" transform="translate(937.61 1538.92)">I</text><path class="cls-2" d="M-815.6-229.4c7.2-84.1,51.7-145.9,132.3-167.3,84.8-22.5,162.1,1.6,213.1,81.2,8.6,13.4,5.9,18.9-10.9,21.3-23.4,3.3-40.8,2-59-18.5-35.3-39.5-98.5-48.5-144.7-26.3-51.2,24.5-82.8,78.5-74.6,132.7,3.2,21-12.2,24.9-22.7,33.5-23.8,19.2-26.1,18.3-30.9-12.5-2.3-14.6-2-29.6-2.8-44.4Z" transform="translate(815.8 770.6)"/><path class="cls-2" d="M-446.6-239.2c5.4,52.9-7,99.5-40.7,137.3-35.1,39.5-74.3,75.3-111.9,112.6-1.8,1.8-4.6,2.4-9.8,5C-606.3-25-597.8-61.5-581.2-96c3.9-8.1,13.2-10.4,20.3-14.7,25-15.4,42.2-37.1,52.4-64.1C-494.3-212.4-488.8-218.8-446.6-239.2Z" transform="translate(815.8 770.6)"/><path class="cls-3" d="M-509.5-224.6c-60.4,53.8-101.3,118.9-115.3,199.4-3.5,19.8-4.4,40.1-6.9,64.7-29-28.8-55.2-54.9-81.6-80.9-5.6-5.5-2.2-10.3.6-15.2,7-12.3,14.4-24.3,21.1-36.7,2.9-5.3,12.8-11.4,2.2-17.1-8.3-4.5-17.4-15.2-28.1-4.1A316.67,316.67,0,0,0-739.7-89c-6.5,8.4-12.5,11-19.9,1.5a10.63,10.63,0,0,0-1.5-1.5c-40.2-38.2-40.5-44.3,3.8-75.9,67.7-48.2,140.3-85.9,224-98,3.7-.5,6.7-5.1,11.4-3.7,12.9.7,29.7-5.4,27.5,18.9C-495.7-236.3-508.8-234.8-509.5-224.6ZM-676.4-123.2c7.8.4,10.7-3.7,14-7.4,8-8.9,16.9-17.1,24-26.7,3.3-4.4,15.6-7.2,6.9-15.8-6.4-6.4-14.9-7.1-22.8-.2-10.1,8.8-20.7,17-30.6,26-3.9,3.5-12.2,7.5-8.8,12.6C-689.8-129-681.4-126.3-676.4-123.2Zm93.3-81.1c.2-5.7-2.5-6.8-5.1-7.8-6.2-2.4-38.1,14.5-39.5,20.8-.8,3.5,1.5,4.9,3.9,6.3,5.2,3,10.5,4.6,15.8.5C-599.3-191.3-590.7-198.2-583.1-204.3Zm1.7-17.1c19.9,11.2,25.9-4.1,35.7-10.1C-559.8-237.8-568.2-228.3-581.4-221.4Z" transform="translate(815.8 770.6)"/><path class="cls-3" d="M-535.2-208.2c.9-12.2,16.2-14,17.4-27.4,2.6-29-17.1-21.8-32.3-22.6,21.8-8.6,45-9,67.9-11.7,8.4-1,11,2.6,14.1,9.6,4,9-2.9,9.9-7.1,12.8C-495.2-234.3-515.2-221.3-535.2-208.2Zm38.4-33.6c-.5-1.4-.7-3.3-1.6-3.8s-2.6.5-3.9.8c.6,1.7,1.2,3.3,1.9,4.9C-499.2-240.5-498-241.1-496.8-241.8Z" transform="translate(815.8 770.6)"/><path class="cls-3" d="M838-481.9c12.8-13.1,29.5-6.2,33.1,6,1.2,4.2.9,8.6.9,12.9,0,5.8-.1,11.7,0,17.5,0,2.6.2,4.6-3.7,4.5s-3.5-2.3-3.5-4.8c0-7.5.1-15.1,0-22.6-.1-8.9-5.2-14.2-13.3-14.1s-13.8,5.9-13.9,14.5c-.1,7.7-.2,15.4,0,23.2.1,3-1,3.8-3.9,3.8s-3.3-1.2-3.3-3.7c.1-13,0-26,.1-39,0-2.2-.9-4.8,3.3-4.9,4.4-.1,3.7,2.5,3.8,5.1A3.55,3.55,0,0,1,838-481.9Z" transform="translate(815.8 770.6)"/><path class="cls-3" d="M923.5-487.8h0c-5.8,14.4-11.7,28.8-17.2,43.3-1.1,2.9-2.5,3.5-5.3,3.5s-4.7-.3-5.9-3.6c-4.8-13-10.1-25.9-15-38.8-.5-1.4-3.5-3.8,0-4.8,2.3-.7,5.5-1.4,7,2.6C890.9-475,895-464.5,899-454c.5,1.2,1,2.4,1.9,4.8,3.3-8.7,6.3-16.4,9.2-24.2,1.1-3,2.6-5.9,3.2-9C914.5-488.6,918.2-489.6,923.5-487.8Z" transform="translate(815.8 770.6)"/><path class="cls-3" d="M817.1-472.2c0,9-.1,18.1.1,27.1.1,3.2-.9,4.2-4.1,4.2s-3.6-1.4-3.6-4c.1-18.2.1-36.5,0-54.7,0-2.9.7-4,3.7-3.9,2.8.1,4,.7,3.9,3.8C817-490.6,817.1-481.4,817.1-472.2Z" transform="translate(815.8 770.6)"/><path class="cls-2" d="M923.5-487.8c1.9-22.4,13.8-38.9,35.3-44.6,22.6-6,43.2.4,56.8,21.7,2.3,3.6,1.6,5-2.9,5.7-6.2.9-10.9.5-15.7-4.9-9.4-10.6-26.2-12.9-38.5-7-13.6,6.5-22.1,20.9-19.9,35.4.8,5.6-3.2,6.6-6.1,8.9-6.4,5.1-7,4.9-8.2-3.3-.7-4-.6-8-.8-11.9Z" transform="translate(815.8 770.6)"/><path class="cls-2" d="M1021.8-490.4c1.5,14.1-1.9,26.5-10.8,36.6-9.4,10.5-19.8,20.1-29.8,30-.5.5-1.2.6-2.6,1.3a79.28,79.28,0,0,1,7.4-29.8c1-2.2,3.5-2.8,5.4-3.9a33.62,33.62,0,0,0,14-17.1C1009.1-483.3,1010.6-485,1021.8-490.4Z" transform="translate(815.8 770.6)"/><path class="cls-3" d="M1005.1-486.5c-16.1,14.3-27,31.7-30.7,53.2-.9,5.3-1.2,10.7-1.8,17.3-7.7-7.7-14.7-14.6-21.8-21.6-1.5-1.5-.6-2.8.2-4,1.9-3.3,3.8-6.5,5.6-9.8.8-1.4,3.4-3,.6-4.6-2.2-1.2-4.6-4.1-7.5-1.1a63.92,63.92,0,0,0-5.9,6.8c-1.7,2.2-3.3,2.9-5.3.4l-.4-.4c-10.7-10.2-10.8-11.8,1-20.2,18.1-12.9,37.4-22.9,59.7-26.1,1-.1,1.8-1.4,3-1,3.5.2,7.9-1.4,7.3,5.1C1008.8-489.7,1005.3-489.3,1005.1-486.5Zm-44.5,27c2.1.1,2.8-1,3.7-2,2.1-2.4,4.5-4.6,6.4-7.1.9-1.2,4.2-1.9,1.9-4.2a4.19,4.19,0,0,0-6.1-.1c-2.7,2.4-5.5,4.5-8.1,6.9-1,.9-3.2,2-2.4,3.4C957-461,959.3-460.3,960.6-459.5Zm24.9-21.6a1.81,1.81,0,0,0-1.4-2.1c-1.7-.6-10.2,3.9-10.5,5.5-.2.9.4,1.3,1,1.7,1.4.8,2.8,1.2,4.2.1C981.2-477.6,983.5-479.5,985.5-481.1Zm.4-4.6c5.3,3,6.9-1.1,9.5-2.7C991.7-490,989.4-487.5,985.9-485.7Z" transform="translate(815.8 770.6)"/><path class="cls-3" d="M998.2-482.2c.2-3.2,4.3-3.7,4.6-7.3.7-7.7-4.6-5.8-8.6-6,5.8-2.3,12-2.4,18.1-3.1,2.2-.3,2.9.7,3.8,2.6,1.1,2.4-.8,2.6-1.9,3.4C1008.9-489.1,1003.6-485.6,998.2-482.2Zm10.3-8.9c-.1-.4-.2-.9-.4-1s-.7.1-1,.2c.2.4.3.9.5,1.3A7.26,7.26,0,0,1,1008.5-491.1Z" transform="translate(815.8 770.6)"/><path class="cls-3" d="M1066.9-482.5v-19.9c0-2.6-.3-4.7,3.6-4.7s3.7,1.9,3.7,4.6c-.1,18.5.1,36.9-.1,55.4,0,2,2.2,5.4-2.4,6.2-4.3.7-4.9-2-5-6-7,6.3-14.7,7.9-23,5.8a20.21,20.21,0,0,1-11.4-7.8c-7.2-9.7-6.4-24.7,1.8-33.4C1041.8-490.8,1053.3-491,1066.9-482.5Zm-32.4,17.9c0,10.3,6.6,17.6,16.2,17.8,9.8.2,16.7-7.3,16.6-18-.1-10.5-6.9-17.9-16.2-17.8C1041.3-482.5,1034.5-475.2,1034.5-464.6Z" transform="translate(815.8 770.6)"/><path class="cls-3" d="M1121.8-488.9c6.9,0,13.4,1.2,17.2,8.1.8,1.5,2.7,3.7.5,4.9-1.9,1-4.6,1.5-6.5-1.1-4.2-5.6-9.8-7.2-16.8-5.2-3,.9-5.1,2.5-5.2,5.8-.1,3.1,1.8,4.9,4.5,5.7,5.8,1.7,11.7,3,17.4,4.8,7.2,2.4,10.4,7.5,9.1,14.1-.7,3.6-2.5,6.7-6,8.4a27.77,27.77,0,0,1-24.5.6,14.23,14.23,0,0,1-8-8.3c-.5-1.5-2.6-3.9.2-4.6,2-.5,5-1.7,6.7,1.9,3.6,7.3,14.4,9.8,21.4,5.3,4.5-2.9,4.1-8.1-1-10.7-5.9-3-12.8-3.1-18.9-5.5-5.2-2-8.6-5.4-8.3-11.4s3.5-9.6,9.1-11.6C1115.6-488.8,1118.6-488.7,1121.8-488.9Z" transform="translate(815.8 770.6)"/><path class="cls-3" d="M1093.3-464.4c0,6.6-.2,13.2.1,19.7.1,3.2-1.2,3.5-3.9,3.6-3,.1-3.3-1.2-3.3-3.7.1-13.3.1-26.7,0-40,0-2.4.2-3.8,3.3-3.8s3.9.9,3.8,3.9C1093.2-477.9,1093.3-471.1,1093.3-464.4Z" transform="translate(815.8 770.6)"/><path class="cls-3" d="M1093.5-501.2c.1,2.8.8,5.4-3.6,5.3-3.7-.1-4.5-1.5-4.3-4.7.2-2.6-.4-5.1,3.9-5.1C1093.4-505.7,1094-504.1,1093.5-501.2Z" transform="translate(815.8 770.6)"/><path class="cls-5" d="M828.1-392.9a3.21,3.21,0,0,1-.4,1.8,2.59,2.59,0,0,1-1.1,1,3.65,3.65,0,0,1-1.5.3,3.19,3.19,0,0,1-1.4-.3,2.66,2.66,0,0,1-1.1-1,3.42,3.42,0,0,1-.4-1.8v-5.5H821v5.5a4.77,4.77,0,0,0,.5,2.2,4,4,0,0,0,1.4,1.5,3.64,3.64,0,0,0,2.1.5,4.65,4.65,0,0,0,2.1-.5,4,4,0,0,0,1.4-1.5,5.09,5.09,0,0,0,.5-2.2v-5.5h-1l.1,5.5Z" transform="translate(815.8 770.6)"/><path class="cls-5" d="M835.9-395.8a3.26,3.26,0,0,0-1.4-.4,2,2,0,0,0-1.4.4,8.12,8.12,0,0,0-1,.9V-396H831v7.2h1.1V-393a2,2,0,0,1,.3-1.1,3,3,0,0,1,.8-.8,2,2,0,0,1,1.1-.3,2,2,0,0,1,1.5.6,2.11,2.11,0,0,1,.6,1.6v4.2h1.1V-393a2.86,2.86,0,0,0-.4-1.7A6,6,0,0,0,835.9-395.8Z" transform="translate(815.8 770.6)"/><polygon class="cls-5" points="1657.4 380.7 1655.1 374.6 1653.9 374.6 1656.8 381.8 1658 381.8 1660.8 374.6 1659.7 374.6 1657.4 380.7"/><path class="cls-5" d="M851-395.6a3.83,3.83,0,0,0-1.9-.5,3.83,3.83,0,0,0-1.9.5,2.76,2.76,0,0,0-1.2,1.4,4.06,4.06,0,0,0-.4,1.9,4.06,4.06,0,0,0,.4,1.9,4.07,4.07,0,0,0,1.2,1.4,3.83,3.83,0,0,0,1.9.5,3.83,3.83,0,0,0,1.9-.5,2.76,2.76,0,0,0,1.2-1.4,4.06,4.06,0,0,0,.4-1.9,4.06,4.06,0,0,0-.4-1.9A3.33,3.33,0,0,0,851-395.6Zm.3,4.6a2.19,2.19,0,0,1-.9,1,2.89,2.89,0,0,1-1.4.4,2.3,2.3,0,0,1-1.4-.4,2.84,2.84,0,0,1-.9-1,3.19,3.19,0,0,1-.3-1.4,3.19,3.19,0,0,1,.3-1.4,2.19,2.19,0,0,1,.9-1,2.89,2.89,0,0,1,1.4-.4,2.3,2.3,0,0,1,1.4.4,2.84,2.84,0,0,1,.9,1,3.19,3.19,0,0,1,.3,1.4A3.19,3.19,0,0,1,851.3-391Z" transform="translate(815.8 770.6)"/><rect class="cls-5" x="1669.9" y="371.7" width="1.1" height="10.1"/><path class="cls-5" d="M862.1-395.6a3.83,3.83,0,0,0-1.9-.5,3.83,3.83,0,0,0-1.9.5,2.76,2.76,0,0,0-1.2,1.4,4.06,4.06,0,0,0-.4,1.9,4.06,4.06,0,0,0,.4,1.9,4.07,4.07,0,0,0,1.2,1.4,3.83,3.83,0,0,0,1.9.5,3.83,3.83,0,0,0,1.9-.5,2.76,2.76,0,0,0,1.2-1.4,4.06,4.06,0,0,0,.4-1.9,4.06,4.06,0,0,0-.4-1.9A3.33,3.33,0,0,0,862.1-395.6Zm.3,4.6a2.19,2.19,0,0,1-.9,1,2.89,2.89,0,0,1-1.4.4,2.3,2.3,0,0,1-1.4-.4,2.84,2.84,0,0,1-.9-1,3.19,3.19,0,0,1-.3-1.4,3.19,3.19,0,0,1,.3-1.4,2.19,2.19,0,0,1,.9-1,2.89,2.89,0,0,1,1.4-.4,2.3,2.3,0,0,1,1.4.4,2.84,2.84,0,0,1,.9,1,3.19,3.19,0,0,1,.3,1.4A3.19,3.19,0,0,1,862.4-391Z" transform="translate(815.8 770.6)"/><path class="cls-5" d="M870.1-395.8a3.26,3.26,0,0,0-1.4-.4,2.41,2.41,0,0,0-1.5.4,4.3,4.3,0,0,0-1,.9V-396h-1.1v7.2h1.1V-393a2,2,0,0,1,.3-1.1,3,3,0,0,1,.8-.8,2,2,0,0,1,1.1-.3,2,2,0,0,1,1.5.6,2.11,2.11,0,0,1,.6,1.6v4.2h1.1V-393a2.86,2.86,0,0,0-.4-1.7A3.84,3.84,0,0,0,870.1-395.8Z" transform="translate(815.8 770.6)"/><polygon class="cls-5" points="1690.9 372 1689.8 372 1689.8 374.6 1688.3 374.6 1688.3 375.6 1689.8 375.6 1689.8 381.8 1690.9 381.8 1690.9 375.6 1692.5 375.6 1692.5 374.6 1690.9 374.6 1690.9 372"/><path class="cls-5" d="M883.4-394.8a2.84,2.84,0,0,0-1-.9,3.31,3.31,0,0,0-1.5-.4,3.45,3.45,0,0,0-1.8.5,3.33,3.33,0,0,0-1.2,1.4,4.06,4.06,0,0,0-.4,1.9,4.06,4.06,0,0,0,.4,1.9,4.07,4.07,0,0,0,1.2,1.4,3.45,3.45,0,0,0,1.8.5,2.41,2.41,0,0,0,1.5-.4c.4-.3.8-.5,1-.9v1.2h1.1V-396h-1.1Zm-.2,3.8a2.19,2.19,0,0,1-.9,1,2.89,2.89,0,0,1-1.4.4,2.3,2.3,0,0,1-1.4-.4,2.19,2.19,0,0,1-.9-1,3.19,3.19,0,0,1-.3-1.4,3.19,3.19,0,0,1,.3-1.4,2.19,2.19,0,0,1,.9-1,2.89,2.89,0,0,1,1.4-.4,2.3,2.3,0,0,1,1.4.4,2.84,2.84,0,0,1,.9,1,3.19,3.19,0,0,1,.3,1.4A3.19,3.19,0,0,1,883.2-391Z" transform="translate(815.8 770.6)"/><path class="cls-5" d="M889-395.9a2.18,2.18,0,0,0-.8.5,2.65,2.65,0,0,0-.5.6,1.69,1.69,0,0,0-.2.5V-396h-1.1v7.2h1.1V-392a4,4,0,0,1,.3-1.5,2,2,0,0,1,.9-1.1,2.3,2.3,0,0,1,1.4-.4h.1v-1.1h-.1A3.59,3.59,0,0,0,889-395.9Z" transform="translate(815.8 770.6)"/><polygon class="cls-5" points="1709.8 380.5 1707.5 374.6 1706.3 374.6 1709.2 381.7 1707.9 384.7 1709.1 384.7 1713.4 374.6 1712.2 374.6 1709.8 380.5"/><path class="cls-5" d="M909-397.1a7.1,7.1,0,0,0-1.4-1,4.53,4.53,0,0,0-1.6-.3h-4v9.6h4a4.15,4.15,0,0,0,1.6-.3,3.32,3.32,0,0,0,1.4-1,5.6,5.6,0,0,0,1-1.5,6.47,6.47,0,0,0,.4-2,4.48,4.48,0,0,0-.4-2A13,13,0,0,0,909-397.1Zm-.2,5.4a4.07,4.07,0,0,1-1.2,1.4,2.73,2.73,0,0,1-1.8.5H903v-7.5h2.9a3.45,3.45,0,0,1,1.8.5,3.33,3.33,0,0,1,1.2,1.4,4.06,4.06,0,0,1,.4,1.9A3.45,3.45,0,0,1,908.8-391.7Z" transform="translate(815.8 770.6)"/><rect class="cls-5" x="1727.6" y="372" width="1.2" height="1.4"/><rect class="cls-5" x="1727.6" y="374.6" width="1.1" height="7.2"/><path class="cls-5" d="M919.1-392.5a5.27,5.27,0,0,0-1.2-.3l-1.2-.3a1.88,1.88,0,0,1-.9-.4,1,1,0,0,1-.4-.7c0-.7.6-1,1.7-1a2.27,2.27,0,0,1,1.3.3,1.37,1.37,0,0,1,.5.8H920a1.78,1.78,0,0,0-.4-1,2.36,2.36,0,0,0-.9-.8,3.51,3.51,0,0,0-1.6-.3,4.06,4.06,0,0,0-2.1.5,1.8,1.8,0,0,0-.7,1.5,1.49,1.49,0,0,0,.3,1,1.46,1.46,0,0,0,.9.6l1.2.3,1.2.3a1.88,1.88,0,0,1,.9.4,1,1,0,0,1,.4.7,1.42,1.42,0,0,1-.2.6,1,1,0,0,1-.5.4c-.2.1-.4.1-.6.2s-.4,0-.5,0a3.09,3.09,0,0,1-1.1-.2,1,1,0,0,1-.6-.5,1.85,1.85,0,0,1-.2-.7h-1.1a2.84,2.84,0,0,0,.4,1.2c.2.4.6.6,1,.9a4.31,4.31,0,0,0,1.7.3,3.28,3.28,0,0,0,2.1-.6,1.94,1.94,0,0,0,.8-1.6,1.8,1.8,0,0,0-.3-1.1A9.29,9.29,0,0,0,919.1-392.5Z" transform="translate(815.8 770.6)"/><path class="cls-5" d="M927.3-395.6a3.45,3.45,0,0,0-1.8-.5,3.34,3.34,0,0,0-1.5.3,2.19,2.19,0,0,0-1,.9V-396h-1.1v10.1H923v-4a2.84,2.84,0,0,0,1,.9,3.31,3.31,0,0,0,1.5.4,3.45,3.45,0,0,0,1.8-.5,3.33,3.33,0,0,0,1.2-1.4,4.06,4.06,0,0,0,.4-1.9,4.06,4.06,0,0,0-.4-1.9A3.74,3.74,0,0,0,927.3-395.6Zm.2,4.6a2.19,2.19,0,0,1-.9,1,2.89,2.89,0,0,1-1.4.4,2.3,2.3,0,0,1-1.4-.4,1.89,1.89,0,0,1-.8-1,5.77,5.77,0,0,1-.3-1.4,3.19,3.19,0,0,1,.3-1.4,2.72,2.72,0,0,1,.8-1,2.89,2.89,0,0,1,1.4-.4,2.3,2.3,0,0,1,1.4.4,2.84,2.84,0,0,1,.9,1,3.19,3.19,0,0,1,.3,1.4A3.19,3.19,0,0,1,927.5-391Z" transform="translate(815.8 770.6)"/><rect class="cls-5" x="1746.2" y="371.7" width="1.1" height="10.1"/><path class="cls-5" d="M939-394.8a2.84,2.84,0,0,0-1-.9,3.31,3.31,0,0,0-1.5-.4,3.45,3.45,0,0,0-1.8.5,3.33,3.33,0,0,0-1.2,1.4,4.06,4.06,0,0,0-.4,1.9,4.06,4.06,0,0,0,.4,1.9,4.07,4.07,0,0,0,1.2,1.4,3.45,3.45,0,0,0,1.8.5,2.41,2.41,0,0,0,1.5-.4,2.19,2.19,0,0,0,1-.9v1.2h1.1V-396H939Zm-.3,3.8a2.72,2.72,0,0,1-.8,1,2.59,2.59,0,0,1-1.4.4,2.3,2.3,0,0,1-1.4-.4,2.19,2.19,0,0,1-.9-1,3.19,3.19,0,0,1-.3-1.4,3.19,3.19,0,0,1,.3-1.4,2.19,2.19,0,0,1,.9-1,2.89,2.89,0,0,1,1.4-.4,2.3,2.3,0,0,1,1.4.4,2.54,2.54,0,0,1,.8,1,3.19,3.19,0,0,1,.3,1.4A3.19,3.19,0,0,1,938.7-391Z" transform="translate(815.8 770.6)"/><path class="cls-5" d="M943.8-394.7a3.26,3.26,0,0,1,1.4-.4,1.84,1.84,0,0,1,1.3.4,3.92,3.92,0,0,1,.8,1h1.2a3,3,0,0,0-1.2-1.7,3.84,3.84,0,0,0-2.2-.7,3.83,3.83,0,0,0-1.9.5,3.33,3.33,0,0,0-1.2,1.4,4.06,4.06,0,0,0-.4,1.9,4.06,4.06,0,0,0,.4,1.9,4.07,4.07,0,0,0,1.2,1.4,3.83,3.83,0,0,0,1.9.5,3.23,3.23,0,0,0,2.2-.7,3,3,0,0,0,1.2-1.7h-1.2a2,2,0,0,1-.8,1,2.84,2.84,0,0,1-1.3.4,2.3,2.3,0,0,1-1.4-.4,2.19,2.19,0,0,1-.9-1,3.19,3.19,0,0,1-.3-1.4,3.19,3.19,0,0,1,.3-1.4A1.79,1.79,0,0,1,943.8-394.7Z" transform="translate(815.8 770.6)"/><path class="cls-5" d="M954.8-395.6a3.83,3.83,0,0,0-1.9-.5,3.83,3.83,0,0,0-1.9.5,2.76,2.76,0,0,0-1.2,1.4,4.06,4.06,0,0,0-.4,1.9,4.14,4.14,0,0,0,.5,1.9,3.48,3.48,0,0,0,1.3,1.4,3.83,3.83,0,0,0,1.9.5,3.28,3.28,0,0,0,2.1-.6,4,4,0,0,0,1.2-1.6h-1.2a3.45,3.45,0,0,1-.8.9,2.77,2.77,0,0,1-1.3.3,2.77,2.77,0,0,1-1.3-.3,2.36,2.36,0,0,1-.9-.8,4.23,4.23,0,0,1-.4-1.2h6.1v-.4a4.06,4.06,0,0,0-.4-1.9A3.42,3.42,0,0,0,954.8-395.6Zm-4.3,2.6a2.75,2.75,0,0,1,.8-1.5,2.35,2.35,0,0,1,1.7-.6,2.52,2.52,0,0,1,1.7.6,2.24,2.24,0,0,1,.8,1.5Z" transform="translate(815.8 770.6)"/><path class="cls-5" d="M967.2-395.7a2.84,2.84,0,0,0-1.3-.4,2.13,2.13,0,0,0-1.2.3,5.55,5.55,0,0,0-.8.6,2.65,2.65,0,0,0-.5.6,2.13,2.13,0,0,0-1-1.1,3.26,3.26,0,0,0-1.3-.4,2,2,0,0,0-1.4.4,6,6,0,0,0-.8.8V-396h-1.1v7.2h1.1v-4.3a2,2,0,0,1,.6-1.5,1.74,1.74,0,0,1,1.4-.5,1.76,1.76,0,0,1,1.3.6,2.46,2.46,0,0,1,.5,1.5v4.3h1.1V-393a2,2,0,0,1,.6-1.5,1.74,1.74,0,0,1,1.4-.5,1.76,1.76,0,0,1,1.3.6,2.46,2.46,0,0,1,.5,1.5v4.3h1.1V-393a2.93,2.93,0,0,0-.4-1.6A2.33,2.33,0,0,0,967.2-395.7Z" transform="translate(815.8 770.6)"/><path class="cls-5" d="M975.5-395.6a3.83,3.83,0,0,0-1.9-.5,3.83,3.83,0,0,0-1.9.5,2.76,2.76,0,0,0-1.2,1.4,4.06,4.06,0,0,0-.4,1.9,4.14,4.14,0,0,0,.5,1.9,3.48,3.48,0,0,0,1.3,1.4,4.14,4.14,0,0,0,1.9.5,3.28,3.28,0,0,0,2.1-.6,4,4,0,0,0,1.2-1.6h-1.2a3.45,3.45,0,0,1-.8.9,2.77,2.77,0,0,1-1.3.3,2.77,2.77,0,0,1-1.3-.3,2.36,2.36,0,0,1-.9-.8,4.23,4.23,0,0,1-.4-1.2h6.1v-.4a4.06,4.06,0,0,0-.4-1.9A5.14,5.14,0,0,0,975.5-395.6Zm-4.4,2.6a2.75,2.75,0,0,1,.8-1.5,2.35,2.35,0,0,1,1.7-.6,2.52,2.52,0,0,1,1.7.6,2.75,2.75,0,0,1,.8,1.5Z" transform="translate(815.8 770.6)"/><path class="cls-5" d="M983.4-395.8a3.26,3.26,0,0,0-1.4-.4,2,2,0,0,0-1.4.4,8.12,8.12,0,0,0-1,.9V-396h-1.1v7.2h1.1V-393a2,2,0,0,1,.3-1.1,3,3,0,0,1,.8-.8,2,2,0,0,1,1.1-.3,2,2,0,0,1,1.5.6,2.11,2.11,0,0,1,.6,1.6v4.2H985V-393a2.86,2.86,0,0,0-.4-1.7A6,6,0,0,0,983.4-395.8Z" transform="translate(815.8 770.6)"/><polygon class="cls-5" points="1804.1 372 1803.1 372 1803.1 374.6 1801.6 374.6 1801.6 375.6 1803.1 375.6 1803.1 381.8 1804.1 381.8 1804.1 375.6 1805.8 375.6 1805.8 374.6 1804.1 374.6 1804.1 372"/><polygon class="cls-5" points="1815 376.8 1811.6 372.3 1810.3 372.3 1810.3 381.8 1811.4 381.8 1811.4 373.9 1815 378.5 1818.5 373.9 1818.5 381.8 1819.6 381.8 1819.6 372.3 1818.4 372.3 1815 376.8"/><path class="cls-5" d="M1011.6-394.8a2.84,2.84,0,0,0-1-.9,3.31,3.31,0,0,0-1.5-.4,3.45,3.45,0,0,0-1.8.5,3.33,3.33,0,0,0-1.2,1.4,4.06,4.06,0,0,0-.4,1.9,4.06,4.06,0,0,0,.4,1.9,4.07,4.07,0,0,0,1.2,1.4,3.45,3.45,0,0,0,1.8.5,2.41,2.41,0,0,0,1.5-.4,2.19,2.19,0,0,0,1-.9v1.2h1.1V-396h-1.1Zm-.3,3.8a2.72,2.72,0,0,1-.8,1,2.59,2.59,0,0,1-1.4.4,2.3,2.3,0,0,1-1.4-.4,2.19,2.19,0,0,1-.9-1,3.19,3.19,0,0,1-.3-1.4,3.19,3.19,0,0,1,.3-1.4,2.19,2.19,0,0,1,.9-1,2.89,2.89,0,0,1,1.4-.4,2.3,2.3,0,0,1,1.4.4,1.89,1.89,0,0,1,.8,1,3.19,3.19,0,0,1,.3,1.4A3.19,3.19,0,0,1,1011.3-391Z" transform="translate(815.8 770.6)"/><path class="cls-5" d="M1019.4-395.8a3.26,3.26,0,0,0-1.4-.4,2.41,2.41,0,0,0-1.5.4,4.3,4.3,0,0,0-1,.9V-396h-1.1v7.2h1.1V-393a2,2,0,0,1,.3-1.1,3,3,0,0,1,.8-.8,2,2,0,0,1,1.1-.3,2,2,0,0,1,1.5.6,2.11,2.11,0,0,1,.6,1.6v4.2h1.1V-393a2.86,2.86,0,0,0-.4-1.7A2.91,2.91,0,0,0,1019.4-395.8Z" transform="translate(815.8 770.6)"/><path class="cls-5" d="M1028.4-394.8a2.84,2.84,0,0,0-1-.9,3.31,3.31,0,0,0-1.5-.4,3.45,3.45,0,0,0-1.8.5,3.33,3.33,0,0,0-1.2,1.4,4.06,4.06,0,0,0-.4,1.9,4.06,4.06,0,0,0,.4,1.9,4.07,4.07,0,0,0,1.2,1.4,3.45,3.45,0,0,0,1.8.5,2.41,2.41,0,0,0,1.5-.4c.4-.3.8-.5,1-.9v1.2h1.1V-396h-1.1Zm-.3,3.8a2.72,2.72,0,0,1-.8,1,2.59,2.59,0,0,1-1.4.4,2.3,2.3,0,0,1-1.4-.4,2.19,2.19,0,0,1-.9-1,3.19,3.19,0,0,1-.3-1.4,3.19,3.19,0,0,1,.3-1.4,2.19,2.19,0,0,1,.9-1,2.89,2.89,0,0,1,1.4-.4,2.3,2.3,0,0,1,1.4.4,2.54,2.54,0,0,1,.8,1,3.19,3.19,0,0,1,.3,1.4A3.19,3.19,0,0,1,1028.1-391Z" transform="translate(815.8 770.6)"/><path class="cls-5" d="M1037-394.8a2.84,2.84,0,0,0-1-.9,3.34,3.34,0,0,0-1.5-.3,3.45,3.45,0,0,0-1.8.5,3.74,3.74,0,0,0-1.2,1.3,3.81,3.81,0,0,0-.4,1.9,4.06,4.06,0,0,0,.4,1.9,3,3,0,0,0,1.2,1.3,3.45,3.45,0,0,0,1.8.5,2.41,2.41,0,0,0,1.5-.4,2.19,2.19,0,0,0,1-.9v1a2.35,2.35,0,0,1-.6,1.7,2.44,2.44,0,0,1-1.8.6,3.19,3.19,0,0,1-1.4-.3,2,2,0,0,1-.8-.8h-1.2a2.89,2.89,0,0,0,1.2,1.5,3.8,3.8,0,0,0,2.2.6,3.74,3.74,0,0,0,2.5-.8,3,3,0,0,0,.9-2.4v-7h-1v1Zm-.3,3.7a3.92,3.92,0,0,1-.8,1,2.89,2.89,0,0,1-1.4.4,2.12,2.12,0,0,1-1.4-.4,2.19,2.19,0,0,1-.9-1,3.19,3.19,0,0,1-.3-1.4,3.19,3.19,0,0,1,.3-1.4,2.84,2.84,0,0,1,.9-1,2.89,2.89,0,0,1,1.4-.4,2.12,2.12,0,0,1,1.4.4,1.89,1.89,0,0,1,.8,1,5.77,5.77,0,0,1,.3,1.4A2.9,2.9,0,0,1,1036.7-391.1Z" transform="translate(815.8 770.6)"/><path class="cls-5" d="M1045-395.6a3.83,3.83,0,0,0-1.9-.5,3.83,3.83,0,0,0-1.9.5,2.76,2.76,0,0,0-1.2,1.4,4.06,4.06,0,0,0-.4,1.9,4.14,4.14,0,0,0,.5,1.9,3.48,3.48,0,0,0,1.3,1.4,3.83,3.83,0,0,0,1.9.5,3.28,3.28,0,0,0,2.1-.6,4,4,0,0,0,1.2-1.6h-1.2a3.45,3.45,0,0,1-.8.9,2.77,2.77,0,0,1-1.3.3,2.77,2.77,0,0,1-1.3-.3,2.36,2.36,0,0,1-.9-.8,3.37,3.37,0,0,1-.4-1.2h6.1v-.4a4.06,4.06,0,0,0-.4-1.9A5.14,5.14,0,0,0,1045-395.6Zm-4.4,2.6a2.75,2.75,0,0,1,.8-1.5,2.35,2.35,0,0,1,1.7-.6,2.52,2.52,0,0,1,1.7.6,2.24,2.24,0,0,1,.8,1.5Z" transform="translate(815.8 770.6)"/><path class="cls-5" d="M1057.4-395.7a2.84,2.84,0,0,0-1.3-.4,2.13,2.13,0,0,0-1.2.3,5.55,5.55,0,0,0-.8.6,2.65,2.65,0,0,0-.5.6,2.13,2.13,0,0,0-1-1.1,3.26,3.26,0,0,0-1.3-.4,2,2,0,0,0-1.4.4,3,3,0,0,0-.8.8V-396H1048v7.2h1.1v-4.3a2,2,0,0,1,.6-1.5,1.74,1.74,0,0,1,1.4-.5,1.76,1.76,0,0,1,1.3.6,2.46,2.46,0,0,1,.5,1.5v4.3h1.1V-393a2,2,0,0,1,.6-1.5,1.74,1.74,0,0,1,1.4-.5,1.76,1.76,0,0,1,1.3.6,2,2,0,0,1,.5,1.5v4.3h1.1V-393a2.93,2.93,0,0,0-.4-1.6A2.85,2.85,0,0,0,1057.4-395.7Z" transform="translate(815.8 770.6)"/><path class="cls-5" d="M1065.6-395.6a3.83,3.83,0,0,0-1.9-.5,3.83,3.83,0,0,0-1.9.5,2.76,2.76,0,0,0-1.2,1.4,4.06,4.06,0,0,0-.4,1.9,4.14,4.14,0,0,0,.5,1.9,3.48,3.48,0,0,0,1.3,1.4,3.83,3.83,0,0,0,1.9.5,3.28,3.28,0,0,0,2.1-.6,4,4,0,0,0,1.2-1.6H1066a3.45,3.45,0,0,1-.8.9,2.77,2.77,0,0,1-1.3.3,2.77,2.77,0,0,1-1.3-.3,2.36,2.36,0,0,1-.9-.8,3.37,3.37,0,0,1-.4-1.2h6.1v-.4a4.06,4.06,0,0,0-.4-1.9A4.09,4.09,0,0,0,1065.6-395.6Zm-4.4,2.6a2.75,2.75,0,0,1,.8-1.5,2.35,2.35,0,0,1,1.7-.6,2.52,2.52,0,0,1,1.7.6,2.75,2.75,0,0,1,.8,1.5Z" transform="translate(815.8 770.6)"/><path class="cls-5" d="M1073.5-395.8a3.26,3.26,0,0,0-1.4-.4,2,2,0,0,0-1.4.4,8.12,8.12,0,0,0-1,.9V-396h-1.1v7.2h1.1V-393a2,2,0,0,1,.3-1.1,3,3,0,0,1,.8-.8,2,2,0,0,1,1.1-.3,2,2,0,0,1,1.5.6,2.11,2.11,0,0,1,.6,1.6v4.2h1.1V-393a2.86,2.86,0,0,0-.4-1.7A6,6,0,0,0,1073.5-395.8Z" transform="translate(815.8 770.6)"/><polygon class="cls-5" points="1894.3 372 1893.2 372 1893.2 374.6 1891.7 374.6 1891.7 375.6 1893.2 375.6 1893.2 381.8 1894.3 381.8 1894.3 375.6 1896 375.6 1896 374.6 1894.3 374.6 1894.3 372"/><path class="cls-5" d="M1090.6-393.4a5,5,0,0,0-1.3-.5,7.37,7.37,0,0,1-1.4-.4,5,5,0,0,1-1.3-.4,3.6,3.6,0,0,1-.9-.5,1.23,1.23,0,0,1-.4-.8.9.9,0,0,1,.1-.5,1,1,0,0,1,.4-.5,1.51,1.51,0,0,1,.8-.4,4.44,4.44,0,0,1,1.3-.2,3.68,3.68,0,0,1,2,.5,1.31,1.31,0,0,1,.7,1.2h1.1a2.65,2.65,0,0,0-.5-1.4,2.94,2.94,0,0,0-1.2-1,4.14,4.14,0,0,0-2.1-.4,4.15,4.15,0,0,0-2.7.7,2.32,2.32,0,0,0-.9,1.9,2.13,2.13,0,0,0,.3,1.2,3.11,3.11,0,0,0,.9.7,3.92,3.92,0,0,0,1.3.5,7.37,7.37,0,0,1,1.4.4,5,5,0,0,1,1.3.4,1.93,1.93,0,0,1,.9.5,1.23,1.23,0,0,1,.4.8,1.36,1.36,0,0,1-.7,1.3,3.58,3.58,0,0,1-1.9.4,6.05,6.05,0,0,1-1.5-.2,2,2,0,0,1-1.1-.6,2.22,2.22,0,0,1-.5-1.1H1084a2.46,2.46,0,0,0,.5,1.5,3.61,3.61,0,0,0,1.3,1.1,6.8,6.8,0,0,0,2.3.4,4.65,4.65,0,0,0,2.8-.7,2.33,2.33,0,0,0,1-2,2.13,2.13,0,0,0-.3-1.2C1091.3-392.9,1091-393.1,1090.6-393.4Z" transform="translate(815.8 770.6)"/><polygon class="cls-5" points="1911.8 380.5 1909.4 374.6 1908.2 374.6 1911.2 381.7 1909.9 384.7 1911 384.7 1915.3 374.6 1914.1 374.6 1911.8 380.5"/><path class="cls-5" d="M1104.8-392.5a5.27,5.27,0,0,0-1.2-.3,5.27,5.27,0,0,1-1.2-.3,1.88,1.88,0,0,1-.9-.4.91.91,0,0,1-.3-.7c0-.7.6-1,1.7-1a2.27,2.27,0,0,1,1.3.3,1.37,1.37,0,0,1,.5.8h1.1a1.78,1.78,0,0,0-.4-1,2.36,2.36,0,0,0-.9-.8,3.51,3.51,0,0,0-1.6-.3,4.06,4.06,0,0,0-2.1.5,1.8,1.8,0,0,0-.7,1.5,1.16,1.16,0,0,0,.4,1,1.46,1.46,0,0,0,.9.6l1.2.3,1.2.3a1.88,1.88,0,0,1,.9.4.91.91,0,0,1,.3.7,1.42,1.42,0,0,1-.2.6,1,1,0,0,1-.5.4c-.2.1-.4.1-.6.2s-.4,0-.5,0a3.09,3.09,0,0,1-1.1-.2,1,1,0,0,1-.6-.5,1.85,1.85,0,0,1-.2-.7H1100a2.84,2.84,0,0,0,.4,1.2c.2.4.6.6,1,.9a4.31,4.31,0,0,0,1.7.3,3.28,3.28,0,0,0,2.1-.6,1.94,1.94,0,0,0,.8-1.6,1.8,1.8,0,0,0-.3-1.1A3.6,3.6,0,0,0,1104.8-392.5Z" transform="translate(815.8 770.6)"/><polygon class="cls-5" points="1925.1 372 1924.1 372 1924.1 374.6 1922.6 374.6 1922.6 375.6 1924.1 375.6 1924.1 381.8 1925.1 381.8 1925.1 375.6 1926.8 375.6 1926.8 374.6 1925.1 374.6 1925.1 372"/><path class="cls-5" d="M1117.1-395.6a3.83,3.83,0,0,0-1.9-.5,3.83,3.83,0,0,0-1.9.5,2.76,2.76,0,0,0-1.2,1.4,4.06,4.06,0,0,0-.4,1.9,4.14,4.14,0,0,0,.5,1.9,3.48,3.48,0,0,0,1.3,1.4,4.14,4.14,0,0,0,1.9.5,3.28,3.28,0,0,0,2.1-.6,4,4,0,0,0,1.2-1.6h-1.2a3.45,3.45,0,0,1-.8.9,2.77,2.77,0,0,1-1.3.3,2.77,2.77,0,0,1-1.3-.3,2.36,2.36,0,0,1-.9-.8,4.23,4.23,0,0,1-.4-1.2h6.1v-.4a4.06,4.06,0,0,0-.4-1.9A5.14,5.14,0,0,0,1117.1-395.6Zm-4.4,2.6a2.75,2.75,0,0,1,.8-1.5,2.35,2.35,0,0,1,1.7-.6,2.52,2.52,0,0,1,1.7.6,2.75,2.75,0,0,1,.8,1.5Z" transform="translate(815.8 770.6)"/><path class="cls-5" d="M1130.5-394.7a2.4,2.4,0,0,0-1-1,2.84,2.84,0,0,0-1.3-.4,2.13,2.13,0,0,0-1.2.3,5.55,5.55,0,0,0-.8.6,2.65,2.65,0,0,0-.5.6,2.66,2.66,0,0,0-1-1.1,3.26,3.26,0,0,0-1.3-.4,2,2,0,0,0-1.4.4,3,3,0,0,0-.8.8V-396h-1.1v7.2h1.1v-4.3a2,2,0,0,1,.6-1.5,1.74,1.74,0,0,1,1.4-.5,1.76,1.76,0,0,1,1.3.6,2.46,2.46,0,0,1,.5,1.5v4.3h1.1V-393a2,2,0,0,1,.6-1.5,1.74,1.74,0,0,1,1.4-.5,1.76,1.76,0,0,1,1.3.6,2,2,0,0,1,.5,1.5v4.3h1.1V-393A12.2,12.2,0,0,0,1130.5-394.7Z" transform="translate(815.8 770.6)"/><image class="cls-6" width="512" height="512" transform="translate(1923.85 362.64) scale(0.7)" xlink:href="../OneDrive/Documents/IT%20MOBILE%20PRESTATION/Projet%201%20Invadis/Logo%20invadis%20version%201%20png-01.png"/><path d="M-253.6-682.4a92.84,92.84,0,0,0-33.9,6.3c13.1-20.5,34.3-34.2,61.2-38.7a111.55,111.55,0,0,1,17.8-1.5c1.5,0,3,0,4.4.1l14.3.8v-55.2h-13.5a179.89,179.89,0,0,0-26.2,2c-34.2,4.2-64.2,18.1-86.7,40.3l-.1.1c-29.5,29.5-45.8,72.5-45.8,121,0,34.7,9.4,64.2,27,85.4,18.2,21.9,43.8,33.4,73.9,33.4,27.8,0,52.9-11.1,70.5-31.2,16.2-18.5,25.2-43.2,25.2-69.4C-165.6-644-201.8-682.4-253.6-682.4Zm-7.6,141.1c-36.8,0-40.6-43.7-40.8-57.3a14.87,14.87,0,0,1,1.9-7.7l.2-.4.2-.4c7-13.8,21.4-23,35.9-23,23.8,0,37.4,15.7,37.4,43.1C-226.5-559.3-240.1-541.3-261.2-541.3Z" transform="translate(815.8 770.6)"/><path d="M-25.5-661.6c-16.6-9.9-37.4-15.2-60.1-15.2-1.5,0-2.9,0-4.2.1l5.2-35H11.6v-55.2H-132L-151.9-619l19.4-2.4a228.23,228.23,0,0,1,30.6-2.3c37.8,0,57.2,13.9,57.6,41.3,0,27.5-23.4,40-45,40-20.6,0-38.6-7.4-46-11.8l-14.5-8.6-16.9,51.4,8.8,5.7c13,8.4,38,17.4,68.9,17.4,29.2,0,56-9.8,75.3-27.7,19.5-18,30.3-43,30.3-70.3C16.6-618.9,1.2-646.3-25.5-661.6Z" transform="translate(815.8 770.6)"/></svg>